/* XPM */
static char *result[] = {
/* columns rows colors chars-per-pixel */
"64 64 30 1 ",
"  c black",
". c gray8",
"X c #1A242B",
"o c #262926",
"O c #29303B",
"+ c #303430",
"@ c #3B3838",
"# c #6B1717",
"$ c #36384A",
"% c #1F3069",
"& c #545959",
"* c #4F526B",
"= c #A33333",
"- c #875844",
"; c #AF787D",
": c #D4997A",
"> c #47668F",
", c #7C8383",
"< c #858A8C",
"1 c gray58",
"2 c #A3ABAF",
"3 c #B0B8BA",
"4 c #C49397",
"5 c #C49FA5",
"6 c #FFCFB0",
"7 c #82ADD4",
"8 c LightGray",
"9 c #FFE8CC",
"0 c #DBE6EB",
"q c None",
/* pixels */
"qqqqqqqqqqqqqqqqqqqqqqqqoooo@@@@@@@@@@ooooooqqqqqqqqqqqqqqqqqqqq",
"qqqqqqqqqqqqqqqqqqqqqqqqoooo@@@@@@@@@@ooooooqqqqqqqqqqqqqqqqqqqq",
"qqqqqqqqqqqqqqqqqqqqoooo@@&&&&<<<<&&@@@@@@oo@@@@@@qqqqqqqqqqqqqq",
"qqqqqqqqqqqqqqqqqqqqoooo@@&&&&<<<<&&@@@@@@oo@@@@@@qqqqqqqqqqqqqq",
"qqqqqqqqqqqqqqqqqqoo@@&&&&<<<<3333@@@@&&<<&&oo<<<<@@qqqqqqqqqqqq",
"qqqqqqqqqqqqqqqqqqoo@@&&&&<<<<3333@@@@&&<<&&oo<<<<@@qqqqqqqqqqqq",
"qqqqqqqqqqqqqqqqoo@@oooo@@&&<<&&@@&&<<<<<<<<&&<<&&<<@@ooqqqqqqqq",
"qqqqqqqqqqqqqqqqoo@@oooo@@&&<<&&@@&&<<<<<<<<&&<<&&<<@@ooqqqqqqqq",
"qqqqqqqqqqqqqqqqoooo@@&&3333@@@@&&&&33&&3333<<33<<@@ooqqqqqqqqqq",
"qqqqqqqqqqqqqqqqoooo@@&&3333@@@@&&&&33&&3333<<33<<@@ooqqqqqqqqqq",
"qqqqqqqqqqqqqqoooo@@&&33@@@@&&&&@@<<&&oo<<&&@@<<&&<<@@qqqqqqqqqq",
"qqqqqqqqqqqqqqoooo@@&&33@@@@&&&&@@<<&&oo<<&&@@<<&&<<@@qqqqqqqqqq",
"qqqqqqqqqqqqqqoo@@&&<<&&&&oo@@@@&&<<@@55&&@@oo&&@@oo&&@@qqqqqqqq",
"qqqqqqqqqqqqqqoo@@&&<<&&&&oo@@@@&&<<@@55&&@@oo&&@@oo&&@@qqqqqqqq",
"qqqqqqqqqqqqoo@@&&<<&&@@&&33oo&&<<@@999955oo55@@ooooqqooqqqqqqqq",
"qqqqqqqqqqqqoo@@&&<<&&@@&&33oo&&<<@@999955oo55@@ooooqqooqqqqqqqq",
"qqqqqqqqqqqqoo@@&&<<&&@@&&33oo&&<<@@999955oo55@@ooooqqooqqqqqqqq",
"qqqqqqqqqqqqoo&&<<&&@@oo<<33oo&&@@999999995599oo;;  qqqqqqqqqqqq",
"qqqqqqqqqqqqoo&&<<&&@@oo<<33oo&&@@999999995599oo;;  qqqqqqqqqqqq",
"qqqqqqqqqqoo&&<<&&@@oo&&<<<<&&@@5599999999999955--  qqqqqqqqqqqq",
"qqqqqqqqqqoo&&<<&&@@oo&&<<<<&&@@5599999999999955--  qqqqqqqqqqqq",
"qqqqqqqqoo&&&&@@@@oo&&<<&&<<&&oo66::------999966  qqqqqqqqqqqqqq",
"qqqqqqqqoo&&&&@@@@oo&&<<&&<<&&oo66::------999966  qqqqqqqqqqqqqq",
"qqqqqqqqqqoooooooo@@@@oo&&<<@@4466::11####666666  qqqqqqqqqqqqqq",
"qqqqqqqqqqoooooooo@@@@oo&&<<@@4466::11####666666  qqqqqqqqqqqqqq",
"qqqqqqqqqqqqoo@@@@@@oo@@<<&&@@6666::88####666666  qqqqqqqqqqqqqq",
"qqqqqqqqqqqqoo@@@@@@oo@@<<&&@@6666::88####666666  qqqqqqqqqqqqqq",
"qqqqqqqqqqqqoo@@@@@@&&<<&&@@;;99996688====666666  qqqqqqqqqqqqqq",
"qqqqqqqqqqqqoo@@@@@@&&<<&&@@;;99996688====666666  qqqqqqqqqqqqqq",
"qqqqqqqqqqqqqqoo@@@@@@oooooo::99999988====999999  qqqqqqqqqqqqqq",
"qqqqqqqqqqqqqqoo@@@@@@oooooo::99999988====999999  qqqqqqqqqqqqqq",
"qqqqqqqqqqqqqqqqoo&&&&@@@@oo::999999999999999999  qqqqqqqqqqqqqq",
"qqqqqqqqqqqqqqqqoo&&&&@@@@oo::999999999999999999  qqqqqqqqqqqqqq",
"qqqqqqqqqqqqqq@@oo<<&&@@oooo--6699999999999999::  qqqqqqqqqqqqqq",
"qqqqqqqqqqqqqq@@oo<<&&@@oooo--6699999999999999::  qqqqqqqqqqqqqq",
"qqqqqqqqqqqq@@&&<<&&@@@@oo....--669999999966::  qqqqqqqqqqqqqqqq",
"qqqqqqqqqqqq@@&&<<&&@@@@oo....--669999999966::  qqqqqqqqqqqqqqqq",
"qqqqqqqqqqqqqq@@@@@@ooooOOOO$$**----------    qqqqqqqqqqqqqqqqqq",
"qqqqqqqqqqqqqq@@@@@@ooooOOOO$$**----------    qqqqqqqqqqqqqqqqqq",
"qqqqqqqqqqqqqqqqqqqqXXXXXXOOXXOO$$******$$OOXXqqqqqqqqqqqqqqqqqq",
"qqqqqqqqqqqqqqqqqqqqXXXXXXOOXXOO$$******$$OOXXqqqqqqqqqqqqqqqqqq",
"qqqqqqqqqqqqqqqqqqqq  OO$$**$$XXOOXXXXXXXXXXqqqqqqqqqqqqqqqqqqqq",
"qqqqqqqqqqqqqqqqqqqq  OO$$**$$XXOOXXXXXXXXXXqqqqqqqqqqqqqqqqqqqq",
"qqqqqqqqqqqqqqqqqqqqXX$$******OOXXOOOOOOXXqqqqqqqqqqqqqqqqqqqqqq",
"qqqqqqqqqqqqqqqqqqqqXX$$******OOXXOOOOOOXXqqqqqqqqqqqqqqqqqqqqqq",
"qqqqqqqqqqqqqqqqqqqqXX$$**$$OO****$$::66OOXXqqqqqqqqqqqqqqqqqqqq",
"qqqqqqqqqqqqqqqqqqqqXX$$**$$OO****$$::66OOXXqqqqqqqqqqqqqqqqqqqq",
"qqqqqqqqqqqqqqqqqq  XX$$$$OO$$****$$::::OOXXqqqqqqqqqqqqqqqqqqqq",
"qqqqqqqqqqqqqqqqqq  XX$$$$OO$$****$$::::OOXXqqqqqqqqqqqqqqqqqqqq",
"qqqqqqqqqqqqqqqqqq  XX$$$$OO$$****$$::::OOXXqqqqqqqqqqqqqqqqqqqq",
"qqqqqqqqqqqqqqqqqq  %%OO$$$$$$$$XX$$--XXOOXXqqqqqqqqqqqqqqqqqqqq",
"qqqqqqqqqqqqqqqqqq  %%OO$$$$$$$$XX$$--XXOOXXqqqqqqqqqqqqqqqqqqqq",
"qqqqqqqqqqqqqqqqqq%%%%%%  XXOOOOOOXXOO  XXqqqqqqqqqqqqqqqqqqqqqq",
"qqqqqqqqqqqqqqqqqq%%%%%%  XXOOOOOOXXOO  XXqqqqqqqqqqqqqqqqqqqqqq",
"qqqqqqqqqqqqqqqqqq%%%%>>>>%%  XXXX    %%%%qqqqqqqqqqqqqqqqqqqqqq",
"qqqqqqqqqqqqqqqqqq%%%%>>>>%%  XXXX    %%%%qqqqqqqqqqqqqqqqqqqqqq",
"qqqqqqqqqqqqqqqqqq++,,227777>>%%  %%%%>>%%qqqqqqqqqqqqqqqqqqqqqq",
"qqqqqqqqqqqqqqqqqq++,,227777>>%%  %%%%>>%%qqqqqqqqqqqqqqqqqqqqqq",
"qqqqqqqqqqqqqqqqqq++,,,,00000022    >>>>++qqqqqqqqqqqqqqqqqqqqqq",
"qqqqqqqqqqqqqqqqqq++,,,,00000022    >>>>++qqqqqqqqqqqqqqqqqqqqqq",
"qqqqqqqqqqqqqqqqqqqq++++++++++++qq  ++,,,,qqqqqqqqqqqqqqqqqqqqqq",
"qqqqqqqqqqqqqqqqqqqq++++++++++++qq  ++,,,,qqqqqqqqqqqqqqqqqqqqqq",
"qqqqqqqqqqqqqqqqqqqq  ,,,,22,,  qqqqqqqqqqqqqqqqqqqqqqqqqqqqqqqq",
"qqqqqqqqqqqqqqqqqqqq  ,,,,22,,  qqqqqqqqqqqqqqqqqqqqqqqqqqqqqqqq"
};
