/* XPM */
static char *result[] = {
/* columns rows colors chars-per-pixel */
"64 64 18 1 ",
"  c black",
". c #1A242B",
"X c #262926",
"o c #29303B",
"O c #3B3838",
"+ c #36384A",
"@ c #1F3069",
"# c #504C4C",
"$ c #545959",
"% c #4F526B",
"& c #47668F",
"* c #7C8383",
"= c #858A8C",
"- c #A3ABAF",
"; c #B0B8BA",
": c #82ADD4",
"> c #DBE6EB",
", c None",
/* pixels */
",,,,,,,,,,,,,,,,,,,,,,,OOOOOOXXXXOOOOOOOO,,,,,,,,,,,,,,,,,,,,,,,",
",,,,,,,,,,,,,,,,,,,,,,,OOOOOOXXXXOOOOOOOO,,,,,,,,,,,,,,,,,,,,,,,",
",,,,,,,,,,,,,,,,,,,OOOO$$$$OOXXOO$$$$$$$$OOXX,,,,,,,,,,,,,,,,,,,",
",,,,,,,,,,,,,,,,,,,OOOO$$$$OOXXOO$$$$$$$$OOXX,,,,,,,,,,,,,,,,,,,",
",,,,,,,,,,,,,,,,,OO$$======$$OO$$==;;==$$==$$XX,,,,,,,,,,,,,,,,,",
",,,,,,,,,,,,,,,,,OO$$======$$OO$$==;;==$$==$$XX,,,,,,,,,,,,,,,,,",
",,,,,,,,,,,,,,,,O$$==;;;;====$$==;;;;$$;;;;==$$X,,,,,,,,,,,,,,,,",
",,,,,,,,,,,,,,,,O$$==;;;;====$$==;;;;$$;;;;==$$X,,,,,,,,,,,,,,,,",
",,,,,,,,,,,,,,XXX======;;;;$$OO$$========$$OOOOXXX,,,,,,,,,,,,,,",
",,,,,,,,,,,,,,XXX======;;;;$$OO$$========$$OOOOXXX,,,,,,,,,,,,,,",
",,,,,,,,,,,,,,OO$;;;;========$$============;;==$OO,,,,,,,,,,,,,,",
",,,,,,,,,,,,,,OO$;;;;========$$============;;==$OO,,,,,,,,,,,,,,",
",,,,,,,,,,,,OO$$=;;====================$$$$$$===$$OO,,,,,,,,,,,,",
",,,,,,,,,,,,OO$$=;;====================$$$$$$===$$OO,,,,,,,,,,,,",
",,,,,,,,,,,,XX=======;;============$$========$$$OOXX,,,,,,,,,,,,",
",,,,,,,,,,,,XX=======;;============$$========$$$OOXX,,,,,,,,,,,,",
",,,,,,,,,,,,XX=======;;============$$========$$$OOXX,,,,,,,,,,,,",
",,,,,,,,,,,,XXOO$==;;;;;;==;;========$$==;;====OXXXX,,,,,,,,,,,,",
",,,,,,,,,,,,XXOO$==;;;;;;==;;========$$==;;====OXXXX,,,,,,,,,,,,",
",,,,,,,,,,XXOO$$=;;==;;;;==;;;;==;;;;==$$;;;;==$OOOOXX,,,,,,,,,,",
",,,,,,,,,,XXOO$$=;;==;;;;==;;;;==;;;;==$$;;;;==$OOOOXX,,,,,,,,,,",
",,,,,,,,XXOO$$==;========$$;;;;==;;;;==$$====$$=$$XXXXXX,,,,,,,,",
",,,,,,,,XXOO$$==;========$$;;;;==;;;;==$$====$$=$$XXXXXX,,,,,,,,",
",,,,,,OO$$$$=====$$======$$====$$======$$$$====$====$$OOOO,,,,,,",
",,,,,,OO$$$$=====$$======$$====$$======$$$$====$====$$OOOO,,,,,,",
",,,,,,,,XXOO$$==$======OO======$$$$====$$OO$$===$$$$OOXX,,,,,,,,",
",,,,,,,,XXOO$$==$======OO======$$$$====$$OO$$===$$$$OOXX,,,,,,,,",
",,,,,,,,,,XXOOOO$;;==OO==;;====OO$$==;;==OOOOOO===OOXX,,,,,,,,,,",
",,,,,,,,,,XXOOOO$;;==OO==;;====OO$$==;;==OOOOOO===OOXX,,,,,,,,,,",
",,,,,,,,XXOOOO$$;==$$OO;;====$$XXOO$$;;==$$OOOO$==OOOOXX,,,,,,,,",
",,,,,,,,XXOOOO$$;==$$OO;;====$$XXOO$$;;==$$OOOO$==OOOOXX,,,,,,,,",
",,,,,,,,XXOOOO$$=$$$$$$==$$$$OO$$XXOO====$$OO$$O$$$$OOXX,,,,,,,,",
",,,,,,,,XXOOOO$$=$$$$$$==$$$$OO$$XXOO====$$OO$$O$$$$OOXX,,,,,,,,",
",,,,,,,,,,XXOO$$X$$OO$$==$$OO$$$$XXOO==$$$$XX$$OXXOOXX,,,,,,,,,,",
",,,,,,,,,,XXOO$$X$$OO$$==$$OO$$$$XXOO==$$$$XX$$OXXOOXX,,,,,,,,,,",
",,,,,,,,,,,,XXOOX$$XXOO$$$$OO$$$$OOOO$$$$OOXXOOXXXXX,,,,,,,,,,,,",
",,,,,,,,,,,,XXOOX$$XXOO$$$$OO$$$$OOOO$$$$OOXXOOXXXXX,,,,,,,,,,,,",
",,,,,,,,,,,,..XXXOOXXXXOOOOXX$$OOOOOO$$$$OOOOXXo..,,,,,,,,,,,,,,",
",,,,,,,,,,,,..XXXOOXXXXOOOOXX$$OOOOOO$$$$OOOOXXo..,,,,,,,,,,,,,,",
",,,,,,,,,,..oo+++XXXXXXXXOOXXOOOOXXOO$$OOXXXX%%o..,,,,,,,,,,,,,,",
",,,,,,,,,,..oo+++XXXXXXXXOOXXOOOOXXOO$$OOXXXX%%o..,,,,,,,,,,,,,,",
",,,,,,,,,,..oo+++ooooXXXXXXXXXXOOXXXXXXXX%%%%%%+oo,,,,,,,,,,,,,,",
",,,,,,,,,,..oo+++ooooXXXXXXXXXXOOXXXXXXXX%%%%%%+oo,,,,,,,,,,,,,,",
",,,,,,,,,,ooooooooo..oo++++XXXXXXXXXX++oo++%%%%%oo..,,,,,,,,,,,,",
",,,,,,,,,,ooooooooo..oo++++XXXXXXXXXX++oo++%%%%%oo..,,,,,,,,,,,,",
",,,,,,,,,,..ooooo..  ++++++%%%%%%%%++oo..oo++%%+oo..,,,,,,,,,,,,",
",,,,,,,,,,..ooooo..  ++++++%%%%%%%%++oo..oo++%%+oo..,,,,,,,,,,,,",
",,,,,,,,,,,,.....  ..oooo++++++%%%%++oo..  ooooooo..,,,,,,,,,,,,",
",,,,,,,,,,,,.....  ..oooo++++++%%%%++oo..  ooooooo..,,,,,,,,,,,,",
",,,,,,,,,,,,.....  ..oooo++++++%%%%++oo..  ooooooo..,,,,,,,,,,,,",
",,,,,,,,,,,,,,.....@@@@&&&&::&&&&@@@@@@@@  ....o....,,,,,,,,,,,,",
",,,,,,,,,,,,,,.....@@@@&&&&::&&&&@@@@@@@@  ....o....,,,,,,,,,,,,",
",,,,,,,,,,,,,,,,,,,@@&&&&::::::&&&&@@&&@@@@     ..,,,,,,,,,,,,,,",
",,,,,,,,,,,,,,,,,,,@@&&&&::::::&&&&@@&&@@@@     ..,,,,,,,,,,,,,,",
",,,,,,,,,,,,,,,,,,,  @@&&&&::::&&@@  @@@@    ...,,,,,,,,,,,,,,,,",
",,,,,,,,,,,,,,,,,,,  @@&&&&::::&&@@  @@@@    ...,,,,,,,,,,,,,,,,",
",,,,,,,,,,,,,,,,,,,,,  ##-->>>>**##@@@@  ,,,,,,,,,,,,,,,,,,,,,,,",
",,,,,,,,,,,,,,,,,,,,,  ##-->>>>**##@@@@  ,,,,,,,,,,,,,,,,,,,,,,,",
",,,,,,,,,,,,,,,,,,,,,  --########      ,,,,,,,,,,,,,,,,,,,,,,,,,",
",,,,,,,,,,,,,,,,,,,,,  --########      ,,,,,,,,,,,,,,,,,,,,,,,,,",
",,,,,,,,,,,,,,,,,,,,,,,  -->>>>>>##,,,,,,,,,,,,,,,,,,,,,,,,,,,,,",
",,,,,,,,,,,,,,,,,,,,,,,  -->>>>>>##,,,,,,,,,,,,,,,,,,,,,,,,,,,,,",
",,,,,,,,,,,,,,,,,,,,,,,  >>######  ,,,,,,,,,,,,,,,,,,,,,,,,,,,,,",
",,,,,,,,,,,,,,,,,,,,,,,  >>######  ,,,,,,,,,,,,,,,,,,,,,,,,,,,,,"
};
