/* XPM */
static char *result[] = {
/* columns rows colors chars-per-pixel */
"64 64 27 1 ",
"  c black",
". c #1A242B",
"X c #262926",
"o c #29303B",
"O c #3B3838",
"+ c #6B1717",
"@ c #36384A",
"# c #1F3069",
"$ c #504C4C",
"% c #545959",
"& c #4F526B",
"* c #A33333",
"= c #875844",
"- c #D4997A",
"; c #47668F",
": c #7C8383",
"> c #858A8C",
", c gray58",
"< c #A3ABAF",
"1 c #B0B8BA",
"2 c #C49FA5",
"3 c #FFCFB0",
"4 c #82ADD4",
"5 c LightGray",
"6 c #FFE8CC",
"7 c #DBE6EB",
"8 c None",
/* pixels */
"88888888888888888888888OOOOOOXXXXOOOOOOOO88888888888888888888888",
"88888888888888888888888OOOOOOXXXXOOOOOOOO88888888888888888888888",
"8888888888888888888OOOO%%%%OOXX%%>>>>%%%%OOXX8888888888888888888",
"8888888888888888888OOOO%%%%OOXX%%>>>>%%%%OOXX8888888888888888888",
"88888888888888888OO%%>>%%OOOOOO%%OOOO>>%%>>%%XX88888888888888888",
"88888888888888888OO%%>>%%OOOOOO%%OOOO>>%%>>%%XX88888888888888888",
"8888888888888888O%%>>OO%%>>>>%%OO%%%%OOOO11>>%%X8888888888888888",
"8888888888888888O%%>>OO%%>>>>%%OO%%%%OOOO11>>%%X8888888888888888",
"88888888888888XXXOO%%1111>>>>>>>>%%>>>>11OOOOXXXXX88888888888888",
"88888888888888XXXOO%%1111>>>>>>>>%%>>>>11OOOOXXXXX88888888888888",
"88888888888888OO%%%>>OO%%>>%%>>>>%%%%%%>>>>%%XX%OO88888888888888",
"88888888888888OO%%%>>OO%%>>%%>>>>%%%%%%>>>>%%XX%OO88888888888888",
"888888888888OO%%XXXOO>>11OO%%11OO%%11OO%%OOXX>>>%%OO888888888888",
"888888888888OO%%XXXOO>>11OO%%11OO%%11OO%%OOXX>>>%%OO888888888888",
"888888888888XX%%>OO%%11OO22OO%%XXOO>>XX%%%%OOOOOOOXX888888888888",
"888888888888XX%%>OO%%11OO22OO%%XXOO>>XX%%%%OOOOOOOXX888888888888",
"888888888888XX%%>OO%%11OO22OO%%XXOO>>XX%%%%OOOOOOOXX888888888888",
"888888888888XXOOO%%>>OO226622OO22XXOO22OO%%%%XXOOOXX888888888888",
"888888888888XXOOO%%>>OO226622OO22XXOO22OO%%%%XXOOOXX888888888888",
"8888888888XXOO%%O>>OO22666666226622XX6622OO%%XX%OOOOXX8888888888",
"8888888888XXOO%%O>>OO22666666226622XX6622OO%%XX%OOOOXX8888888888",
"88888888XXXXOO>>X%%226666666666666666666622OOXX>%%XXXXXX88888888",
"88888888XXXXOO>>X%%226666666666666666666622OOXX>%%XXXXXX88888888",
"888888OO%%%%>>>>%XX33======6666666666======33XX%>>>>%%OOOO888888",
"888888OO%%%%>>>>%XX33======6666666666======33XX%>>>>%%OOOO888888",
"88888888XXOO%%%%O3333,,++++3333333333++++,,3333O%%%%OOXX88888888",
"88888888XXOO%%%%O3333,,++++3333333333++++,,3333O%%%%OOXX88888888",
"8888888888XXOOXX --3355++++3333333333++++5533-- XXOOXX8888888888",
"8888888888XXOOXX --3355++++3333333333++++5533-- XXOOXX8888888888",
"88888888XXOOOO   --3355****3333333333****5533--   OOOOXX88888888",
"88888888XXOOOO   --3355****3333333333****5533--   OOOOXX88888888",
"88888888XXOO%%XX ==3355****6666666666****5533== XX%%OOXX88888888",
"88888888XXOO%%XX ==3355****6666666666****5533== XX%%OOXX88888888",
"8888888888XXOOXXo  --3366666666666666666633--   XXOOXX8888888888",
"8888888888XXOOXXo  --3366666666666666666633--   XXOOXX8888888888",
"888888888888..oo@oo==--336666666666666633--==..o..88888888888888",
"888888888888..oo@oo==--336666666666666633--==..o..88888888888888",
"8888888888..oo@@@@@..oo==----333333----====..oo@@@..888888888888",
"8888888888..oo@@@@@..oo==----333333----====..oo@@@..888888888888",
"8888888888..@@@@@oo..oo@@oo==========oo@@oo..@@&&&@@..8888888888",
"8888888888..@@@@@oo..oo@@oo==========oo@@oo..@@&&&@@..8888888888",
"88888888..oooo@@o..oo..oo@@&&&&&&&&@@@@oo....&&&&&@@..8888888888",
"88888888..oooo@@o..oo..oo@@&&&&&&&&@@@@oo....&&&&&@@..8888888888",
"88888888ooooooooo..oooo@@oooo......oooooooo..@@&@@@@oo..88888888",
"88888888ooooooooo..oooo@@oooo......oooooooo..@@&@@@@oo..88888888",
"88888888oooooooo...  @@@@@@@@&&&&&&@@@@oo  oo&&&&&@@oo..88888888",
"88888888oooooooo...  @@@@@@@@&&&&&&@@@@oo  oo&&&&&@@oo..88888888",
"88888888..@@@@oo.88  oo@@@@&&&&&&&&&&@@oo==----@@@oo..8888888888",
"88888888..@@@@oo.88  oo@@@@&&&&&&&&&&@@oo==----@@@oo..8888888888",
"88888888..@@@@oo.88  oo@@@@&&&&&&&&&&@@oo==----@@@oo..8888888888",
"88888888  oo==== 88####..oo@@@@@@@@oo..##==6633.oo  888888888888",
"88888888  oo==== 88####..oo@@@@@@@@oo..##==6633.oo  888888888888",
"8888888888  ---- 88##;;;;4444;;;;####;;##  --33.  88888888888888",
"8888888888  ---- 88##;;;;4444;;;;####;;##  --33.  88888888888888",
"888888888888    888####;;;;;;;;##  ########     8888888888888888",
"888888888888    888####;;;;;;;;##  ########     8888888888888888",
"8888888888888888888  $$::7777<<$$  ######88888888888888888888888",
"8888888888888888888  $$::7777<<$$  ######88888888888888888888888",
"888888888888888888888  ::$$$$$$<<  $$$$  88888888888888888888888",
"888888888888888888888  ::$$$$$$<<  $$$$  88888888888888888888888",
"888888888888888888888  $$<<77<<$$      8888888888888888888888888",
"888888888888888888888  $$<<77<<$$      8888888888888888888888888",
"8888888888888888888888888  $$$$  8888888888888888888888888888888",
"8888888888888888888888888  $$$$  8888888888888888888888888888888"
};
