/* XPM */
static char *result[] = {
/* columns rows colors chars-per-pixel */
"64 64 30 1 ",
"  c black",
". c gray8",
"X c #1A242B",
"o c #262926",
"O c #29303B",
"+ c #303430",
"@ c #3B3838",
"# c #6B1717",
"$ c #36384A",
"% c #1F3069",
"& c #545959",
"* c #4F526B",
"= c #A33333",
"- c #875844",
"; c #AF787D",
": c #D4997A",
"> c #47668F",
", c #7C8383",
"< c #858A8C",
"1 c gray58",
"2 c #A3ABAF",
"3 c #B0B8BA",
"4 c #C49397",
"5 c #C49FA5",
"6 c #FFCFB0",
"7 c #82ADD4",
"8 c LightGray",
"9 c #FFE8CC",
"0 c #DBE6EB",
"q c None",
/* pixels */
"qqqqqqqqqqqqqqqqqqqqoooooo@@@@@@@@@@ooooqqqqqqqqqqqqqqqqqqqqqqqq",
"qqqqqqqqqqqqqqqqqqqqoooooo@@@@@@@@@@ooooqqqqqqqqqqqqqqqqqqqqqqqq",
"qqqqqqqqqqqqqq@@@@@@oo@@@@@@&&<<<<&&&&@@ooooqqqqqqqqqqqqqqqqqqqq",
"qqqqqqqqqqqqqq@@@@@@oo@@@@@@&&<<<<&&&&@@ooooqqqqqqqqqqqqqqqqqqqq",
"qqqqqqqqqqqq@@<<<<oo&&<<&&@@@@3333<<<<&&&&@@ooqqqqqqqqqqqqqqqqqq",
"qqqqqqqqqqqq@@<<<<oo&&<<&&@@@@3333<<<<&&&&@@ooqqqqqqqqqqqqqqqqqq",
"qqqqqqqqoo@@<<&&<<&&<<<<<<<<&&@@&&<<&&@@oooo@@ooqqqqqqqqqqqqqqqq",
"qqqqqqqqoo@@<<&&<<&&<<<<<<<<&&@@&&<<&&@@oooo@@ooqqqqqqqqqqqqqqqq",
"qqqqqqqqqqoo@@<<33<<3333&&33&&&&@@@@3333&&@@ooooqqqqqqqqqqqqqqqq",
"qqqqqqqqqqoo@@<<33<<3333&&33&&&&@@@@3333&&@@ooooqqqqqqqqqqqqqqqq",
"qqqqqqqqqq@@<<&&<<@@&&<<oo&&<<@@&&&&@@@@33&&@@ooooqqqqqqqqqqqqqq",
"qqqqqqqqqq@@<<&&<<@@&&<<oo&&<<@@&&&&@@@@33&&@@ooooqqqqqqqqqqqqqq",
"qqqqqqqq@@&&oo@@&&oo@@&&55@@<<&&@@@@oo&&&&<<&&@@ooqqqqqqqqqqqqqq",
"qqqqqqqq@@&&oo@@&&oo@@&&55@@<<&&@@@@oo&&&&<<&&@@ooqqqqqqqqqqqqqq",
"qqqqqqqqooqqoooo@@55oo559999@@<<&&oo33&&@@&&<<&&@@ooqqqqqqqqqqqq",
"qqqqqqqqooqqoooo@@55oo559999@@<<&&oo33&&@@&&<<&&@@ooqqqqqqqqqqqq",
"qqqqqqqqooqqoooo@@55oo559999@@<<&&oo33&&@@&&<<&&@@ooqqqqqqqqqqqq",
"qqqqqqqqqqqq  ;;oo995599999999@@&&oo33<<oo@@&&<<&&ooqqqqqqqqqqqq",
"qqqqqqqqqqqq  ;;oo995599999999@@&&oo33<<oo@@&&<<&&ooqqqqqqqqqqqq",
"qqqqqqqqqqqq  --5599999999999955@@&&<<<<&&oo@@&&<<&&ooqqqqqqqqqq",
"qqqqqqqqqqqq  --5599999999999955@@&&<<<<&&oo@@&&<<&&ooqqqqqqqqqq",
"qqqqqqqqqqqqqq  669999------::66oo&&<<&&<<&&oo@@@@&&&&ooqqqqqqqq",
"qqqqqqqqqqqqqq  669999------::66oo&&<<&&<<&&oo@@@@&&&&ooqqqqqqqq",
"qqqqqqqqqqqqqq  666666####11::6644@@<<&&oo@@@@ooooooooqqqqqqqqqq",
"qqqqqqqqqqqqqq  666666####11::6644@@<<&&oo@@@@ooooooooqqqqqqqqqq",
"qqqqqqqqqqqqqq  666666####88::6666@@&&<<@@oo@@@@@@ooqqqqqqqqqqqq",
"qqqqqqqqqqqqqq  666666####88::6666@@&&<<@@oo@@@@@@ooqqqqqqqqqqqq",
"qqqqqqqqqqqqqq  666666====88669999;;@@&&<<&&@@@@@@ooqqqqqqqqqqqq",
"qqqqqqqqqqqqqq  666666====88669999;;@@&&<<&&@@@@@@ooqqqqqqqqqqqq",
"qqqqqqqqqqqqqq  999999====88999999::oooooo@@@@@@ooqqqqqqqqqqqqqq",
"qqqqqqqqqqqqqq  999999====88999999::oooooo@@@@@@ooqqqqqqqqqqqqqq",
"qqqqqqqqqqqqqq  999999999999999999::oo@@@@&&&&ooqqqqqqqqqqqqqqqq",
"qqqqqqqqqqqqqq  999999999999999999::oo@@@@&&&&ooqqqqqqqqqqqqqqqq",
"qqqqqqqqqqqqqq  ::9999999999999966--oooo@@&&<<oo@@qqqqqqqqqqqqqq",
"qqqqqqqqqqqqqq  ::9999999999999966--oooo@@&&<<oo@@qqqqqqqqqqqqqq",
"qqqqqqqqqqqqqqqq  ::669999999966--....oo@@@@&&<<&&@@qqqqqqqqqqqq",
"qqqqqqqqqqqqqqqq  ::669999999966--....oo@@@@&&<<&&@@qqqqqqqqqqqq",
"qqqqqqqqqqqqqqqqqq    ----------**$$OOOOoooo@@@@@@qqqqqqqqqqqqqq",
"qqqqqqqqqqqqqqqqqq    ----------**$$OOOOoooo@@@@@@qqqqqqqqqqqqqq",
"qqqqqqqqqqqqqqqqqqXXOO$$******$$OOXXOOXXXXXXqqqqqqqqqqqqqqqqqqqq",
"qqqqqqqqqqqqqqqqqqXXOO$$******$$OOXXOOXXXXXXqqqqqqqqqqqqqqqqqqqq",
"qqqqqqqqqqqqqqqqqqqqXXXXXXXXXXOOXX$$**$$OO  qqqqqqqqqqqqqqqqqqqq",
"qqqqqqqqqqqqqqqqqqqqXXXXXXXXXXOOXX$$**$$OO  qqqqqqqqqqqqqqqqqqqq",
"qqqqqqqqqqqqqqqqqqqqqqXXOOOOOOXXOO******$$XXqqqqqqqqqqqqqqqqqqqq",
"qqqqqqqqqqqqqqqqqqqqqqXXOOOOOOXXOO******$$XXqqqqqqqqqqqqqqqqqqqq",
"qqqqqqqqqqqqqqqqqqqqXXOO66::$$****OO$$**$$XXqqqqqqqqqqqqqqqqqqqq",
"qqqqqqqqqqqqqqqqqqqqXXOO66::$$****OO$$**$$XXqqqqqqqqqqqqqqqqqqqq",
"qqqqqqqqqqqqqqqqqqqqXXOO::::$$****$$OO$$$$XX  qqqqqqqqqqqqqqqqqq",
"qqqqqqqqqqqqqqqqqqqqXXOO::::$$****$$OO$$$$XX  qqqqqqqqqqqqqqqqqq",
"qqqqqqqqqqqqqqqqqqqqXXOO::::$$****$$OO$$$$XX  qqqqqqqqqqqqqqqqqq",
"qqqqqqqqqqqqqqqqqqqqXXOOXX--$$XX$$$$$$$$OO%%  qqqqqqqqqqqqqqqqqq",
"qqqqqqqqqqqqqqqqqqqqXXOOXX--$$XX$$$$$$$$OO%%  qqqqqqqqqqqqqqqqqq",
"qqqqqqqqqqqqqqqqqqqqqqXX  OOXXOOOOOOXX  %%%%%%qqqqqqqqqqqqqqqqqq",
"qqqqqqqqqqqqqqqqqqqqqqXX  OOXXOOOOOOXX  %%%%%%qqqqqqqqqqqqqqqqqq",
"qqqqqqqqqqqqqqqqqqqqqq%%%%    XXXX  %%>>>>%%%%qqqqqqqqqqqqqqqqqq",
"qqqqqqqqqqqqqqqqqqqqqq%%%%    XXXX  %%>>>>%%%%qqqqqqqqqqqqqqqqqq",
"qqqqqqqqqqqqqqqqqqqqqq%%>>%%%%  %%>>777722,,++qqqqqqqqqqqqqqqqqq",
"qqqqqqqqqqqqqqqqqqqqqq%%>>%%%%  %%>>777722,,++qqqqqqqqqqqqqqqqqq",
"qqqqqqqqqqqqqqqqqqqqqq++>>>>    22000000,,,,++qqqqqqqqqqqqqqqqqq",
"qqqqqqqqqqqqqqqqqqqqqq++>>>>    22000000,,,,++qqqqqqqqqqqqqqqqqq",
"qqqqqqqqqqqqqqqqqqqqqq,,,,++  qq++++++++++++qqqqqqqqqqqqqqqqqqqq",
"qqqqqqqqqqqqqqqqqqqqqq,,,,++  qq++++++++++++qqqqqqqqqqqqqqqqqqqq",
"qqqqqqqqqqqqqqqqqqqqqqqqqqqqqqqq  ,,22,,,,  qqqqqqqqqqqqqqqqqqqq",
"qqqqqqqqqqqqqqqqqqqqqqqqqqqqqqqq  ,,22,,,,  qqqqqqqqqqqqqqqqqqqq"
};
