/* XPM */
static char *result[] = {
/* columns rows colors chars-per-pixel */
"64 64 72 1 ",
"  c #4F2713",
". c #4E2913",
"X c #532C14",
"o c #542E19",
"O c #57321C",
"+ c #59341D",
"@ c #5D381E",
"# c #5B3721",
"$ c #5E3B24",
"% c #613D25",
"& c #613E29",
"* c #624127",
"= c #64442C",
"- c #674B2F",
"; c #694A2F",
": c #674731",
"> c #654A35",
", c #6A4D31",
"< c #634C38",
"1 c #6C4E39",
"2 c #6E5134",
"3 c #66513D",
"4 c #68523F",
"5 c #705335",
"6 c #735539",
"7 c #75593B",
"8 c #785A3E",
"9 c #675341",
"0 c #695542",
"q c #6C5843",
"w c #6F5F4D",
"e c #7A5E43",
"r c #6F604E",
"t c #7D6144",
"y c #73624E",
"u c #7F6548",
"i c #746552",
"p c #796653",
"a c #7A6A56",
"s c #7C6D5C",
"d c #7E705E",
"f c #806649",
"g c #836A4D",
"h c #876E52",
"j c #886F52",
"k c #806F5E",
"l c #877053",
"z c #8A7256",
"x c #81715F",
"c c #8C765A",
"v c #8E795C",
"b c #907A5D",
"n c #827564",
"m c #857866",
"M c #867968",
"N c #897C6B",
"B c #947F63",
"V c #8E816F",
"C c #968165",
"Z c #988267",
"A c #9A8569",
"S c #8F8271",
"D c #928576",
"F c #948778",
"G c #968B7B",
"H c #988C7E",
"J c #998F81",
"K c #9C9283",
"L c #9F9588",
"P c #A0978A",
"I c #A2988C",
"U c None",
/* pixels */
"UUUUUUUUUUUUUUUUUUUUUUUUUUUUUUUUUUUUUUUUUUUUUUUUUUUUUUUUUUUUUUUU",
"UUUUUUUUUUUUUUUUUUUUUUUUUUUUUUUUUUUUUUUUUUUUUUUUUUUUUUUUUUUUUUUU",
"UUUUUUUUUUUUUUUUUUUUUUUUUUUUUUUUUUUUUUUUUUUUUUUUUUUUUUUUUUUUUUUU",
"UUUUUUUUUUUUUUUUUUUUUUUUUUUUUUUUUUUUUUUUUUUUUUUUUUUUUUUUUUUUUUUU",
"UUUUUUUUUUUUUUUUUUUUUUUUUUUUUUUUUUUUUUUUUUUUUUUUUUUUUUUUUUUUUUUU",
"UUUUUUUUUUUUUUUUUUUUUUUUUUUUUUUUUUUUUUUUUUUUUUUUUUUUUUUUUUUUUUUU",
"UUUUUUUUUUUUUUUUUUUUUUUUUUUUUUUUUUUUUUUUUUUUUUUUUUUUUUUUUUUUUUUU",
"UUUUUUUUUUUUUUUUUUUUUUUUUUUUUUUUUUUUUUUUUUUUUUUUUUUUUUUUUUUUUUUU",
"UUUUUUUUUUUUUUUUUUUUUUUUUUUUUUUUUUUUUUUUUUUUUUUUUUUUUUUUUUUUUUUU",
"UUUUUUUUUUUUUUUUUUUUUUUUUUUUUUUUUUUUUUUUUUUUUUUUUUUUUUUUUUUUUUUU",
"UUUUUUUUUUUUUUUUUUUUUUUUUUUUUUUUUUUUUUUUUUUUUUUUUUUUUUUUUUUUUUUU",
"UUUUUUUUUUUUUUUUUUUUUUUUUUUUUUUUUUUUUUUUUUUUUUUUUUUUUUUUUUUUUUUU",
"UUUUUUUUUUUUUUUUUUUUUUUUUUUUUUUUUUUUUUUUUUUUUUUUUUUUUUUUUUUUUUUU",
"UUUUUUUUUUUUUUUUUUUUUUUUUUUUUUUUUUUUUUUUUUUUUUUUUUUUUUUUUUUUUUUU",
"UUUUUUUUUUUUUUUUUUUUUUUUUUUUUUUUUUUUUUUUUUUUUUUUUUUUUUUUUUUUUUUU",
"UUUUUUUUUUUUUUUUUUUUUUUUUUUUUUUUUUUUUUUUUUUUUUUUUUUUUUUUUUUUUUUU",
"UUUUUUUUUUUUUUUUUUUUUUUUUUUUUUUUUUUUUUUUUUUUUUUUUUUUUUUUUUUUUUUU",
"UUUUUUUUUUUUUUUUUUUUUUUUUUUUUUUUUUUUUUUUUUUUUUUUUUUUUUUUUUUUUUUU",
"UUUUUUUUUUUUUUUUUUUUUUUUUUUUUUUUUUUUUUUUUUUUUUUUUUUUUUUUUUUUUUUU",
"UUUUUUUUUUUUUUUUUUUUUUUUUUUUUUUUUUUUUUUUUUUUUUUUUUUUUUUUUUUUUUUU",
"UUUUUUUUUUUUUUUUUUUUUUUUUUUUUUUUUUUUUUUUUUUUUUUUUUUUUUUUUUUUUUUU",
"UUUUUUUUUUUUUUUUUUUUUUUUUUUUUUUUUUUUUUUUUUUUUUUUUUUUUUUUUUUUUUUU",
"UUUUUUUUUUUUUUUUUUUUUUUUUUUUUUUUUUUUUUUUUUUUUUUUUUUUUUUUUUUUUUUU",
"UUUUUUUUUUUUUUUUUUUUUUUUUUUUUUUUUUUUUUUUUUUUUUUUUUUUUUUUUUUUUUUU",
"UUUUUUUUUUUUUUUUUUUUUUUUUUUUUUUUUUUUUUUUUUUUUUUUUUUUUUUUUUUUUUUU",
"UUUUUUUUUUUUUUUUUUUUUUUUUUUUUUUUUUUUUUUUUUUUUUUUUUUUUUUUUUUUUUUU",
"UUUUUUUUUUUUUUUUUUUUUUUUUUUUUUUUUUUUUUUUUUUUUUUUUUUUUUUUUUUUUUUU",
"UUUUUUUUUUUUUUUUUUUUUUUUUUUUUUUUUUUUUUUUUUUUUUUUUUUUUUUUUUUUUUUU",
"UUUUUUUUUUUUUUUUUUUUUUUUUUUUUUUUUUUUUUUUUUUUUUUUUUUUUUUUUUUUUUUU",
"UUUUUUUUUUUUUUUUUUUUUUUUUUUUUUUUUUUUUUUUUUUUUUUUUUUUUUUUUUUUUUUU",
"UUUUUUUUUUUUUUUUUUUUUUUUUUUUUUUUUUUUUUUUUUUUUUUUUUUUUUUUUUUUUUUU",
"UUUUUUUUUUUUUUUUUUUUUUUUUUUUUUUUUUUUUUUUUUUUUUUUUUUUUUUUUUUUUUUU",
"UUUUUUUUUUUUUUUUU#+#@UUUUUUUUUUUUUUUUUUUUUU$++#UUUUUUUUUUUUUUUUU",
"UUUUUUUUUUUUUUUU#npu+XXXXX+UXXXXXXXXUXXXXXX$pps#UUUUUUUUUUUUUUUU",
"UUUUUUUUUUUUUUUU:mkk#65265g+g5555227@u22122&ssm$UUUUUUUUUUUUUUUU",
"UUUUUUUUUUUUUUUU:GNN%eggggl=vfgggggz=hgghfh&NNG=UUUUUUUUUUUUUUUU",
"UUUUUUUUUUUUUUUU1JFF&fggggb;Bggghggv=cggggh&DDJ&UUUUUUUUUUUUUUUU",
"UUUUUUUUUUUUUUUU1PFF&fbbbbB7bcbcccvv;bccccc:DDP:UUUUUUUUUUUUUUUU",
"UUUUUUUUUUUUUUUU1PJJ&gbbbbZ8BbvbvvcB;vccccB&JJP:UUUUUUUUUUUUUUUU",
"UUUUUUUUUUUUUUUU1III&gBBBBA7ZBBBCCCC;CCCBBB:LLP1UUUUUUUUUUUUUUUU",
"UUUUUUUUUUUUUUUU,PPP%gBCZCA6ZZCCCCCC,ZBCBZB:PPP:UUUUUUUUUUUUUUUU",
"UUUUUUUUUUUUUUUU1PPP%gBBBCZ6AbZbCCCC;CbZBBB:JPP1UUUUUUUUUUUUUUUU",
"UUUUUUUUUUUUUUUU=IHH@fbbbbA6AbbbvvcC;Ccbvbb=HHI:UUUUUUUUUUUUUUUU",
"UUUUUUUUUUUUUUUU&IHH@fbbbbC6ZbbbvvvC;Cbbbbb=GGP:UUUUUUUUUUUUUUUU",
"UUUUUUUUUUUUUUUU&LBD@fbbbbC,CvvvvvmC=Cbbvbv&SSJ1UUUUUUUUUUUUUUUU",
"UUUUUUUUUUUUUUUU&JDN@8ggggc;zhggghuc*cggggg=DNJ:UUUUUUUUUUUUUUUU",
"UUUUUUUUUUUUUUUU%GMNX8ggggj%lgugguhc@jggfgg&mMG:UUUUUUUUUUUUUUUU",
"UUUUUUUUUUUUUUUU%DMBX8ggggg#ltttteelOjgfgff&mmN&UUUUUUUUUUUUUUUU",
"UUUUUUUUUUUUUUUU#XoXo78888fX2*#$@@+tO777551#XXX#UUUUUUUUUUUUUUUU",
"UUUUUUUUUUUUUUUU+GGGXXXXXXXXXXVVVVOXXX.XXXXOFGG$UUUUUUUUUUUUUUUU",
"UUUUUUUUUUUUUUUU$NddX*****&X$XdXXaX$X,-*:==ossM$UUUUUUUUUUUUUUUU",
"UUUUUUUUUUUUUUUU$nssO;56668X-XidXr.*X755222Xasn#UUUUUUUUUUUUUUUU",
"UUUUUUUUUUUUUUUU*diiX=222,7X2XrrXr.*.7,,,,,.iid#UUUUUUUUUUUUUUUU",
"UUUUUUUUUUUUUUUU#diiX*,,,,7X-X05aq.$.7,,,22XirsoUUUUUUUUUUUUUUUU",
"UUUUUUUUUUUUUUUUOiry.*22,,7X-*XXXX*-X72,,,,.wwi.UUUUUUUUUUUUUUUU",
"UUUUUUUUUUUUUUUUXr7q.*--,;7X,-****--X7----,.qqi UUUUUUUUUUUUUUUU",
"UUUUUUUUUUUUUUUU yqq.$----6X,;,,--,,.7--,--.0qy UUUUUUUUUUUUUUUU",
"UUUUUUUUUUUUUUUU iq0.$----6X,,,>-2--X7----,.qqi.UUUUUUUUUUUUUUUU",
"UUUUUUUUUUUUUUUU ##O+$*$$$7X$$$$**$*X5$$$$$OO++.UUUUUUUUUUUUUUUU",
"UUUUUUUUUUUUUUUU mnnn...XX.XXXXXXX..XXXXX..mdnn.UUUUUUUUUUUUUUUU",
"UUUUUUUUUUUUUUUU.ywwi.psdddMNNNNNNMMVnndss.iwwi UUUUUUUUUUUUUUUU",
"UUUUUUUUUUUUUUUU <<<i.3333449qq0q0q033q399.y<<< UUUUUUUUUUUUUUUU",
"UUUUUUUUUUUUUUUU   .X .X....    . ......        UUUUUUUUUUUUUUUU",
"UUUUUUUUUUUUUUUUUUUUUUUUUUUUUUUUUUUUUUUUUUUUUUUUUUUUUUUUUUUUUUUU"
};
