/* XPM */
static char *result[] = {
/* columns rows colors chars-per-pixel */
"64 64 66 1 ",
"  c #4E2913",
". c #512C14",
"X c #532E18",
"o c #55331D",
"O c #58351F",
"+ c #563521",
"@ c #583621",
"# c #573924",
"$ c #5A3B26",
"% c #573B28",
"& c #5B3E2B",
"* c #636317",
"= c #666618",
"- c #6C6D19",
"; c #73761C",
": c #5C402D",
"> c #5B4331",
", c #5E4936",
"< c #5F4A3A",
"1 c #604A37",
"2 c #614F3F",
"3 c #6C6A2E",
"4 c #747728",
"5 c #696532",
"6 c #6C6A30",
"7 c #747633",
"8 c #75763D",
"9 c #5D5144",
"0 c #5F574E",
"q c #5F584E",
"w c #625445",
"e c #61554A",
"r c #63594E",
"t c #685C4F",
"y c #645C53",
"u c #695F53",
"i c #655F58",
"p c #666057",
"a c #6B6255",
"s c #676159",
"d c #6B645B",
"f c #6E695D",
"g c #716458",
"h c #716A5D",
"j c #6E6960",
"k c #726D61",
"l c #796F63",
"z c #757267",
"x c #787267",
"c c #767468",
"v c #79756B",
"b c #7C7A6D",
"n c #7E7C71",
"m c #807D6F",
"M c #817E73",
"N c #7E803E",
"B c #838176",
"V c #858379",
"C c #89867D",
"Z c #8B897E",
"A c #8D8B83",
"S c #918E86",
"D c #94928B",
"F c #99968E",
"G c #9C9A92",
"H c None",
/* pixels */
"DVVCZB$-*;;-;;;;*NN*NNN*NN*N;;;;;;;;;;;;N-;;;;;-;;;;;;;-;;>%%>%%",
"DVVVVV$-*;;;;;;;N**NN*N*N*N*;;-;;;;-;;;;-;;;;-;;;;;;;-;;**VVBVVB",
"FVVCVV$=-;;;;;;;NNN*N*NNN**N;;-N;;;;;;;--;N-;;;;;;;;;;;;*BVVVVVV",
"DVVVVB:=*;;;;;-;*N-N*NN**NN*-N--;;;;;;;;N---;;;;;;-;;;;;#cVVZVVV",
"DVVZVZ:=*-N-;;;;-N--;;;;N**NN*N-;-N-;;;-*N-NN*NN;;--N-;;>VVVZVVD",
"FBBBBB$=*N--;;;;N--N;;;;*NN**N--;;--;;;;N*N*NN**;;N*N-;;#BBBBBS*",
"DBBBBB$=*NNN-N-;N-;;-;;;NN*NNNNN;;-NN-;;NNNN*NNN;*-N-;;-#nBBBBD>",
"DBVVVV$.  oo.oo.+oo*;;;+* *      *o#   *     *o#* #     :BVVBBS%",
"DVVVVB:55pffkfkffff:**#cccccccccfzzzzcczczzzz%zzzkjkkkkkoBVVVVD:",
"DVVVVB:tqfffffffkfjcooccbbcccccczzczcczczzzzz%zfkkkkkfkj#BBVVBS:",
"DBBVVV$rqfkfffkffffc:bcbccccccccczzccccccczzz%zzzkkkkkkj#BBBBVZ:",
"FBBVBB#qrfffffffkffc:Bbcbcccccccccczcccczzzzz%jzjzkkkkjk#cnBBVZ:",
"DBBBBV:apccccccccbbB>ZZBBVVVBBBBnBBBBBBBBBZZZ*nnnnBnBBBB#nnVVBZ:",
"DBBBBB#q5pppsspsiqqc>kdafkfkffkkffffffsfsissi%iiiiiqrq09OnnVBVZ:",
"DBBBBB:9qipyypppyqqz>kfffffffffffzffffsfssssi%iipiiqree9onmmBBZ:",
"DBBBBm#9qippypyyyqqk>zpfaafffff8fffffffsfsssi%iipiyqrweq#nmmmmZ:",
"DBBmBB%%%%%%$$$:$$$$:$$$ .*###..#:#:#::>::%::v:::::#::#:obnnnnS:",
"DBBBBB$ffzzzzzzzzzzc;;;;N---NNN-:bcbcvcbcvvbcvcbcbbcnvcb#bnBnmA%",
"DmBBBB#fdzzzzzzzzzzczc;;NN-N-N-N:cbbbbnvcbvbbbvvbbbbvnvb+mnmMbA:",
"DBBBBmofdzzzzzczzzczczzbzzkcN-N-:vbvbbvbbbbbvbbbcbccvnvv+bnbnbC:",
"DBBBmBofszzzczcczzzzzzzccccchN-N2vbbbvbvbbbbvbbvbbvbvbvvoMMMbbZ:",
"DBBBBB.BAnVVVVVnVVVVVVVVVVVVBZBZ2ZZBVVVVBVVBVVVVVVBVVVVVobbbnbZ$",
"DBBmBB.piisiiiiissssssssssiitapk>jffjdjdjjfdjdjddsisiiisXnbnbbZ&",
"DBBBmB.rissiiiijssssssssssii8apk#jdfdjdjddfjdjdjsssiiiii.nMbMmZ&",
"DBBBMMXX &&&&&>&>::iuaappssstupkodfdfdfdffffdsiiiijiiiii MmbmnA$",
"DBBBMMXrulzczzzzzzb+::::oooo.......::#:>:wfdssi:>%%%&&&&%MbnbbC&",
":::X. trrzzzzzzzzzb BbbBbmbbmmbbbbbbbbbbb:qdii zzzzzcczzk  X&&$H",
"ZAAZAS&ryzzzzzzzzzb>BbBbmmbbbbbbbbbbbbbbb:9qs cczczzzzzz.SSAFGG&",
"Zbmvmv&rrzccczczzzv>BnbBmmbbbbbbbbmbbbbbb>q9>czzzzzzzzzzXMMCCAG&",
"Zbbvmv$uiMMVMMVVBBV>BnBbmbbbmmbbbbbmbbmbc>::&jzzzzzzzvzzXCCZCMF&",
"Zbbbmv&rriiisiiiiij>AZZZZZZZZZZZZZBZZZZZV>5*>AVVVVVVMMAM@MCMMCF&",
"Cbbblx&rriiiiiiiiij>bffffffffffffhfffffai>**%iiiiiiiiiiuOCMCCCF&",
"Cmmxvx&tyiiiyyiyppf.bffffhhffffffffffffpp:== ppiiiiiuppy#BBVVVF:",
"Cxxvvx&&:%:>::%:#o  bfffhhhfffffaffdfdapp:** ppsiiiiuapp#mBBBVZ:",
"Clvxxx&aizzczzcccccc..::%:%#o#.Xo#::::>:#ah*=. .::::o#:$#mBBBBD:",
"Cvxvvx$apzcczzcccccccccccccccc 8NckzzzzzccNN;;;;fj;;;NhaomBBBBZ:",
"Axvxbc$apzczccccccccccccccccccoN8zzxzzzzczzc;;;;jf;;;NhtOMMCBBZ&",
"Cvxvxv&gaczccccccccccccccccccc:N8zxzzzzzcclc;;N;;;;Na5gaOMMMmMS&",
"Cvmlxx$apzccvccccccccccccccccc:;;;xczzzzzllllN;;;;NaahhaOMMMMMZ:",
"AxlxxcOxzVVVVVVVVVVVZBmZBZBBBB,N;;;;zzczzzzlh;;;4;;ahahtOMMMMMS&",
"Clxxxv@e9dpdppssapsssssdssfssf,BZVBBnBMnnnnnngNN4mCCCCCCOMMmMMA&",
"Alxxxxoeqdppssssdpsddsssssssfi>qtrrrqryrrrryrr-==*0r0e0eOmMmmMS$",
"Cklxlxoewpdpssssppssdpsdppssii>qrrrqrrrrrrrrrrr**wrrre00OmmMmMA$",
"CkkkllXeqpppdsssdddisppsfsspif>qrrrrrrrrrr>##%%%$$@%%%%%OmmmmMS&",
"MkklkkX..::::::::::O+o.ppdpdpp>qrrrrrrrrr&cccccvmxcxxxxzXmmmmmA$",
"MlkkkkXutkkfkkkkkkkzczz.pddpppo5rrrrrrrr&cccccccllccxxzxXMmmmmS&",
"MllhklXttkkkkkkfkkkfkzz:dpdppo*.rrrrrrrr>vcccvcvccxcvvjmXMmmmmA$",
"Mkhlkk trkfkkfkkkfkkkzk>p....-** .......>cccccccczcclllmXMMMmmS&",
"Mlkhkk ttkkkjkkkkfkkkkk, =--**-* --55--=>nVVAVAMVVVVVVVVXBMBnnA&",
"$&&o  hggMnnMnMnBbnmmnb,**4;NNNN>664;;;;<jsiiiiissdsssss1..X&&&H",
"DSAAAAO99ryyyyyrqyyqyiq%**;;N-N-:cbvvv4;&ssjiisjdsssssss.AAAASD&",
"DnbMnn$99ry00y0yyyyyyyy%*;;N-N-N>cvvvvv3 jssssiisssssssa.xcxxxD&",
"Snnnnn$99yyyyyyyyyyyttwO*N-N-Ncv,vvvvvvv;++#%#####+oXXoX.xvvvxD&",
"Annnnn&. ::>&>&&>>O+...*N-N-f8bc,cvvvvnvvvvcvvvvvvczkhgaXvvvvvD&",
"Annnnn&asczczcvvccbcbb;;-N-Ncbcm9vvvvvvvvvvvvvvvvvvzkhfuovvvvxA&",
"Abnnnn%dfcvzvvvvccvbccN;N-N-ccmm<nvvvnvvvvvvvvvzvvzzkhhuOvvxbbA&",
"Annnnn$gaccbzcccccvvvbc;;;;4nnnn9VVVVVVVMVAMAMMAVVVVCCCAOxvxmbA&",
"Annnbm$lzCVVBBBnMMnnnnBgNNN8VVVV9jjjjjjjjjjdjjjjfhdsayuyOvvvbbA&",
"AbnnMn$ewsdssddssdddjsj*=hjjjjjj:djjjjjjdjjjjjdjfdddsuyuOxvxbvA$",
"Annnnn$eedsddsddddssssi***sdsjjf:djjjjjjjjffjjjsjdssauuyOmvmbbA$",
"Abnnnn%eessadsdddsddiy******pfff fjfjjjjhffjjfjfdddiiuyu$vbbbvA&",
"Annnbn@eedddsddssddss****##+o:OO#o.X  o#%%%s oo%&%OO... @vnbnbA&",
"AnnnbbO...XO$%#%$$irr**%%cccccvvccvccbccvcv.nccccccccccc@bnbbnA&",
"Annvbb$hhmmmmbmmmm$er%%vvcccvcvccccccccccvc>ncccccxccccz@bbbbvA&"
};
