/* XPM */
static char *result[] = {
/* columns rows colors chars-per-pixel */
"64 64 78 1 ",
"  c #47576D",
". c #47586D",
"X c #48596F",
"o c #4C5D74",
"O c #4E657C",
"+ c #52657E",
"@ c #C3912E",
"# c #C39133",
"$ c #CFB43E",
"% c #D0B435",
"& c #D7C53C",
"* c #D1B557",
"= c #D4B779",
"- c #D6C541",
"; c #E3E247",
": c #E2E248",
"> c #ECF54D",
", c #DBC77A",
"< c #E5E464",
"1 c #E6E37E",
"2 c #556781",
"3 c #566A85",
"4 c #536E88",
"5 c #5A6F8B",
"6 c #56718C",
"7 c #5B728E",
"8 c #5D7C8D",
"9 c #5C7591",
"0 c #5D7995",
"q c #5F7B98",
"w c #617F9C",
"e c #5F819D",
"r c #61819E",
"t c #688A9F",
"y c #6F969F",
"u c #6385A2",
"i c #6489A6",
"p c #698CA2",
"a c #668DAB",
"s c #698CAC",
"d c #6992AE",
"f c #729AA5",
"g c #749DA8",
"h c #6B94B4",
"j c #6E99BA",
"k c #729CBE",
"l c #76A1AE",
"z c #76A3B0",
"x c #729EC1",
"c c #76A2C6",
"v c #77A5C9",
"b c #79A6CB",
"n c #7AA8CD",
"m c #7DADD3",
"M c #7FB0D7",
"N c #8ABEB3",
"B c #D5B785",
"V c #8CC0B5",
"C c #8CC2B8",
"Z c #D9EC97",
"A c #F1F88E",
"S c #DFCAA1",
"D c #EDE7B4",
"F c #82B4DC",
"G c #86BAE3",
"H c #89BFEA",
"J c #B1DADF",
"K c #8BC2ED",
"L c #8FC7F4",
"P c #8FC8F4",
"I c #90C9F6",
"U c #93CEFC",
"Y c #B0DAE0",
"T c #F0EAC4",
"R c #F2EACD",
"E c #F9FCCC",
"W c #FEFFE7",
"Q c None",
/* pixels */
"QQQQQQQQQQQQQQWWWWQQQQQQQQQQQQQQQQQQQQQQQQQQQQQQQQQQQQQQQQQQQQQQ",
"QQQQQQQQQQQQQQRRRTQQQQQQQQQQQQQQQQQQQQQQQQQQQQQQQQQQQQQQQQQQQQQQ",
"QQQQQQQQQQQQWRSBB,<ZJUUUUUQQQQQQQQQQQQQQQQQQQQQQQQQQQQQQQQQQQQQQ",
"QQQQQQQQQQQQED=##%;ZJUUUUUQQQQQQQQQQQQQQQQQQQQQQQQQQQQQQQQQQQQQQ",
"QQQQQQQQQQQQAA*@@%;ZYUUUUUUUUUQQQQQQQQQQQQQQQQQQQQQQQQQQQQQQQQQQ",
"QQQQQQQQQQQQ>:$$$&;ZYIHHIUUUUUQQQQQQQQQQQQQQQQQQQQQQQQQQQQQQQQQQ",
"QQQQQQQQQQQQQQ;;;;QQQQhcHIUUULGmQQQQQQQQQQQQQQQQQQQQQQQQQQQQQQQQ",
"QQQQQQQQQQQQQQ>>>>QQQQ2sFGGHKKFmQQQQQQQQQQQQQQQQQQQQQQQQQQQQQQQQ",
"QQQQQQQQQQQQQQQQQQQQQQQQsssjmFMmmmQQQQQQQQQQQQQQQQQQQQQQQQQQQQQQ",
"QQQQQQQQQQQQQQQQQQQQQQQQ222whcmmnvQQQQQQQQQQQQQQQQQQQQQQQQQQQQQQ",
"QQQQQQQQQQQQQQQQQQQQQQQQQQ250scnkhdaQQQQQQQQQQQQQQQQQQQQQQQQQQQQ",
"QQQQQQQQQQQQQQQQQQQQQQQQQQ222wjchaaaQQQQQQQQQQQQQQQQQQQQQQQQQQQQ",
"QQQQQQQQQQQQQQQQQQQQQQQQQQQQ20ahdaaaaaQQQQQQQQQQQQQQQQQQQQQQQQQQ",
"QQQQQQQQQQQQQQQQQQQQQQQQQQQQ260uashhhjQQQQQQQQQQQQQQQQQQQQQQQQQQ",
"QQQQQQQQQQQQQQQQQQQQQQQQQQQQ2226uhcvbbnMQQQQQQQQQQQQQQQQQQQQQQQQ",
"QQQQQQQQQQQQQQQQQQQQQQQQQQQQ2+oO0acmMmMnQQQQQQQQQQQQQQQQQQQQQQQQ",
"QQQQQQQQQQQQQQQQQQQQQQQQQQQQQQXo2wxmmMMbjaQQQQQQQQQQQQQQQQQQQQQQ",
"QQQQQQQQQQQQQQQQQQQQQQQQQQQQQQX  0xnbbcchaQQQQQQQQQQQQQQQQQQQQQQ",
"QQQQQQQQQQQQQQQQQQQQQQQQQQQQXXo  9xvzjhhdaaaQQQQQQQQQQQQQQQQQQQQ",
"QQQQQQQQQQQQQQQQQQQQQQQQQQQQXX Xo9hxhaaaaaaaQQQQQQQQQQQQQQQQQQQQ",
"QQQQQQQQQQQQQQQQQQQQQQQQQQXXXXoo26qiaaaaaaaaaaQQQQQQQQQQQQQQQQQQ",
"QQQQQQQQQQQQQQQQQQQQQQQQQQXXXXXo4450uaaaaaaaaaQQQQQQQQQQQQQQQQQQ",
"QQQQQQQQQQQQQQQQQQQQQQQQXXXXXXXo3550iaaaaaaaaaQQQQQQQQQQQQQQQQQQ",
"QQQQQQQQQQQQQQQQQQQQQQQQXXX  oo+3550uaaaaaaaaaQQQQQQQQQQQQQQQQQQ",
"QQQQQQQQQQQQQQQQQQQQQQX XXXX o+35550uaaaaaaaaaaaQQQQQQQQQQQQQQQQ",
"QQQQQQQQQQQQQQQQQQQQQQ+oo XXO+780970uaaaaaaaaaaaQQQQQQQQQQQQQQQQ",
"QQQQQQQQQQQQQQQQQQQQ553+o Xo+7ruuw90uasaaaaaaaaaurQQQQQQQQQQQQQQ",
"QQQQQQQQQQQQQQQQQQQQ5573+Oo+60iaaiwqiaaaaaaaaaairrQQQQQQQQQQQQQQ",
"QQQQQQQQQQQQQQQQQQQQ555533359wisaauiaaaaaaaaaaairrQQQQQQQQQQQQQQ",
"QQQQQQQQQQQQQQQQQQQQ55555555wuisaaaaaaaaaaaaaasirrQQQQQQQQQQQQQQ",
"QQQQQQQQQQQQQQQQQQ55555557wwwuisaaaaaaaaiaaaaaaiuwwwQQQQQQQQQQQQ",
"QQQQQQQQQQQQQQQQQQ55575559wwwwidzzhahaahhjjhhasdgftwQQQQQQQQQQQQ",
"QQQQQQQQQQQQQQQQQQ55555555wwwuizCCzdhhhjcvvcjddzNNfwQQQQQQQQQQQQ",
"QQQQQQQQQQQQQQQQQQ55555555wwwwigNNfeiiihjxxjdiefNNfwQQQQQQQQQQQQ",
"QQQQQQQQQQQQQQQQQQ55555557wwwwwpff83444460094448yfueQQQQQQQQQQQQ",
"QQQQQQQQQQQQQQQQQQ2335553wwwwwwwe04OoXXX....XoO40rweQQQQQQQQQQQQ",
"QQQQQQQQQQQQQQQQQQo+o23557wwwwwweee02  .XX.X.+9wqewwQQQQQQQQQQQQ",
"QQQQQQQQQQQQQQQQQQX Xo2355wwwwwwqeie4444609646rrwwwwQQQQQQQQQQQQ",
"QQQQQQQQQQQQQQQQQQXXXXo25557wwwweueeeeqihxxharww00wwQQQQQQQQQQQQ",
"QQQQQQQQQQQQQQQQQQXXXXXo2557wwwwrqeeiiaakvvxduww770wQQQQQQQQQQQQ",
"QQQQQQQQQQQQQQQQQQQQXXXo3557wwwwwrwrwwwusssswww557QQQQQQQQQQQQQQ",
"QQQQQQQQQQQQQQQQQQQQXXoo+357wwwwwwwwwwwwwwwwww5555QQQQQQQQQQQQQQ",
"QQQQQQQQQQQQQQQQQQQQQQXoo+375wwwwwwwwwwwwwwww57555QQQQQQQQQQQQQQ",
"QQQQQQQQQQQQQQQQQQQQQQX oo+335w7qqqqwwww7www755555QQQQQQQQQQQQQQ",
"QQQQQQQQQQQQQQQQQQQQQQQQXoo+35799999979957w55555QQQQQQQQQQQQQQQQ",
"QQQQQQQQQQQQQQQQQQQQQQQQXXXo23575555555555555555QQQQQQQQQQQQQQQQ",
"QQQQQQQQQQQQQQQQQQQQQQQQQQQQo+35555555555555QQQQQQQQQQQQQQQQQQQQ",
"QQQQQQQQQQQQQQQQQQQQQQQQQQQQoo35555555555555QQQQQQQQQQQQQQQQQQQQ",
"QQQQQQQQQQQQQQQQQQQQQQQQQQQQQQQQQQQQQQQQQQQQQQQQQQQQQQQQQQQQQQQQ",
"QQQQQQQQQQQQQQQQQQQQQQQQQQQQQQQQQQQQQQQQQQQQQQQQQQQQQQQQQQQQQQQQ",
"QQQQQQQQQQQQQQQQQQQQQQQQQQQQQQQQQQQQQQQQQQQQQQQQQQQQQQQQQQQQQQQQ",
"QQQQQQQQQQQQQQQQQQQQQQQQQQQQQQQQQQQQQQQQQQQQQQQQQQQQQQQQQQQQQQQQ",
"QQQQQQQQQQQQQQQQQQQQQQQQQQQQQQQQQQQQQQQQQQQQQQQQQQQQQQQQQQQQQQQQ",
"QQQQQQQQQQQQQQQQQQQQQQQQQQQQQQQQQQQQQQQQQQQQQQQQQQQQQQQQQQQQQQQQ",
"QQQQQQQQQQQQQQQQQQQQQQQQQQQQQQQQQQQQQQQQQQQQQQQQQQQQQQQQQQQQQQQQ",
"QQQQQQQQQQQQQQQQQQQQQQQQQQQQQQQQQQQQQQQQQQQQQQQQQQQQQQQQQQQQQQQQ",
"QQQQQQQQQQQQQQQQQQQQQQQQQQQQQQQQQQQQQQQQQQQQQQQQQQQQQQQQQQQQQQQQ",
"QQQQQQQQQQQQQQQQQQQQQQQQQQQQQQQQQQQQQQQQQQQQQQQQQQQQQQQQQQQQQQQQ",
"QQQQQQQQQQQQQQQQQQQQQQQQQQQQQQQQQQQQQQQQQQQQQQQQQQQQQQQQQQQQQQQQ",
"QQQQQQQQQQQQQQQQQQQQQQQQQQQQQQQQQQQQQQQQQQQQQQQQQQQQQQQQQQQQQQQQ",
"QQQQQQQQQQQQQQQQQQQQQQQQQQQQQQQQQQQQQQQQQQQQQQQQQQQQQQQQQQQQQQQQ",
"QQQQQQQQQQQQQQQQQQQQQQQQQQQQQQQQQQQQQQQQQQQQQQQQQQQQQQQQQQQQQQQQ",
"QQQQQQQQQQQQQQQQQQQQQQQQQQQQQQQQQQQQQQQQQQQQQQQQQQQQQQQQQQQQQQQQ",
"QQQQQQQQQQQQQQQQQQQQQQQQQQQQQQQQQQQQQQQQQQQQQQQQQQQQQQQQQQQQQQQQ"
};
