/* XPM */
static char *result[] = {
/* columns rows colors chars-per-pixel */
"64 64 81 1 ",
"  c #47576E",
". c #47586D",
"X c #48596F",
"o c #4B5D75",
"O c #4F667D",
"+ c #51657E",
"@ c #C3912E",
"# c #C39133",
"$ c #CFB43D",
"% c #D1B557",
"& c #D4B779",
"* c #D6C541",
"= c #E3E247",
"- c #E3E248",
"; c #ECF54D",
": c #DBC87D",
"> c #E5E464",
", c #E6E37E",
"< c #566782",
"1 c #556A84",
"2 c #5A6F8B",
"3 c #56718B",
"4 c #5A728E",
"5 c #5E7C8D",
"6 c #5C7491",
"7 c #5D7995",
"8 c #5F7B98",
"9 c #617F9C",
"0 c #5F809D",
"q c #61819E",
"w c #6F969F",
"e c #6385A2",
"r c #6489A6",
"t c #698CA2",
"y c #668DAB",
"u c #698DAD",
"i c #6790AE",
"p c #6A93AD",
"a c #729BA6",
"s c #749DA8",
"d c #6B94B4",
"f c #6E96B8",
"g c #6E99BA",
"h c #729CBF",
"j c #78A2A7",
"k c #75A1AE",
"l c #76A3B0",
"z c #739EC1",
"x c #75A2C5",
"c c #77A4C9",
"v c #78A6CA",
"b c #79A8CC",
"n c #7DADD3",
"m c #7FB0D6",
"M c #9BA3A7",
"N c #9DA9AD",
"B c #8ABEB3",
"V c #A1B3BB",
"C c #D6B987",
"Z c #8CC0B5",
"A c #8CC2B8",
"S c #96CEB9",
"D c #F1F88E",
"F c #E0CBA2",
"G c #EDE7B4",
"H c #83B5DD",
"J c #86BAE5",
"K c #88BDE7",
"L c #88BEE8",
"P c #8AC1EC",
"I c #8EC6F2",
"U c #8FC9F5",
"Y c #93CEFC",
"T c #F0EAC4",
"R c #F2EACD",
"E c #F9FCCC",
"W c #E2E5D4",
"Q c #E3E7D8",
"! c #E3E8D9",
"~ c #FEFFE7",
"^ c None",
/* pixels */
"^^^^^^^^^^^^^^^^^^^^^^^^^^^^^^^^^^^^^^^^^^^^^^^^^^^^^^^^^^^^^^^^",
"^^^^^^^^^^^^^^^^^^^^^^^^^^^^^^^^^^^^^^^^^^^^^^^^^^^^^^^^^^^^^^^^",
"^^^^^^^^^^^^^^^^^^^^^^^^^^^^^^^^^^^^^^^^^^^^^^^^^^^^^^^^^^^^^^^^",
"^^^^^^^^^^^^^^^^^^^^^^^^^^^^^^^^^^^^^^^^^^^^^^^^^^^^^^^^^^^^^^^^",
"^^^^^^^^^^^^^^^^^^^^^^^^^^^^^^^^^^^^^^^^^^^^^^^^^^^^^^^^^^^^^^^^",
"^^^^^^^^^^^^^^^^^^^^^^^^^^^^^^^^^^^^^^^^^^^^^^^^^^^^^^^^^^^^^^^^",
"^^^^^^^^^^^^^^^^^^^^^^^^^^^^^^^^^^^^^^^^^^^^^^^^^^^^^^^^^^^^^^^^",
"^^^^^^^^^^^^^^^^^^^^^^^^^^^^^^^^^^^^^^^^^^^^^^^^^^^^^^^^^^^^^^^^",
"^^^^^^^^^^^^^^^^^^nHIYYYYYYY^^^^^^^^^^^^^^^^^^^^^^^^^^^^^^^^^^^^",
"^^^^^^^^^^^^^^^^^^nHPUYYYYYY^^^^^^^^^^^^^^^^^^^^^^^^^^^^^^^^^^^^",
"^^^^^^^^^^^^^^nnHHHHHKUYYYYYYIJn^^^^^^^^^^^^^^^^^^^^^^^^^^^^^^^^",
"^^^^^^^^^^^^^^vvvzhzzvHJJPPIIPmn^^^^^^^^^^^^^^^^^^^^^^^^^^^^^^^^",
"^^^^^^^^^^^^^^fffur99euuuhnHJmmnnn^^^^^^^^^^^^^^^^^^^^^^^^^^^^^^",
"^^^^^^^^^^^^^^rre92<<<<<18dxbmmnnn^^^^^^^^^^^^^^^^^^^^^^^^^^^^^^",
"^^^^^^^^^^^^yyir9<^^^^^^<<9uxnnmnbgr^^^^^^^^^^^^^^^^^^^^^^^^^^^^",
"^^^^^^^^^^^^yire91^^^^^^<++9dzxbczdi^^^^^^^^^^^^^^^^^^^^^^^^^^^^",
"^^^^^^^^^^^^yyye31^^^^^^^^<148idfdidcn^^^^^^^^^^^^^^^^^^^^^^^^^^",
"^^^^^^^^^^^^yre841^^^^^^^^1+o<7eridhvm^^^^^^^^^^^^^^^^^^^^^^^^^^",
"^^^^^^^^^^^^yr74^^^^^^^^^^^^.oO3edxbnnnn^^^^^^^^^^^^^^^^^^^^^^^^",
"^^^^^^^^^^^^VVNM^^^^^^^^^^^^X..1rgbbbccc^^^^^^^^^^^^^^^^^^^^^^^^",
"^^^^^^^^^^^^QQWW^^^^^^^^^^o.. .4gbbbhfddiy^^^^^^^^^^^^^^^^^^^^^^",
"^^^^^^^^^^^^RRRT^^^^^^^^^^...oo6dccxfiriyy^^^^^^^^^^^^^^^^^^^^^^",
"^^^^^^^^^^~RFCC:>;^^^^^^.....o+49rdddrryyyyy^^^^^^^^^^^^^^^^^^^^",
"^^^^^^^^^^EG&##$-;^^^^^^. o.oo1227rrriiyyyyy^^^^^^^^^^^^^^^^^^^^",
"^^^^^^^^^^D,%#@$-;^^^^......oo1226eiryiryyyy^^^^^^^^^^^^^^^^^^^^",
"^^^^^^^^^^;-*$$*-;^^^^o .o oo+1228eyiyyiyyyy^^^^^^^^^^^^^^^^^^^^",
"^^^^^^^^^^^^----^^^^ o...o.o+12227eyyyyyyyyyyi^^^^^^^^^^^^^^^^^^",
"^^^^^^^^^^^^;;;;^^^^ooo ..o<467646eyyyyyiriyyy^^^^^^^^^^^^^^^^^^",
"^^^^^^^^^^^^^^^^^^^^1<oo.o+40erq57eyyyiyuyyyyy^^^^^^^^^^^^^^^^^^",
"^^^^^^^^^^^^^^^^^^^^21+oO+28rryr9qeyyyyyyyyyyr^^^^^^^^^^^^^^^^^^",
"^^^^^^^^^^^^^^^^^^222211<26qrrirrryyyyyyyyyyyre9^^^^^^^^^^^^^^^^",
"^^^^^^^^^^^^^^^^^^222224469qriyyuryyyyyyyyyyire9^^^^^^^^^^^^^^^^",
"^^^^^^^^^^^^^^^^^^222222999qrruuryriryyyyyyyyre0^^^^^^^^^^^^^^^^",
"^^^^^^^^^^^^^^^^^^222229999erdlldyirddddgdiiiiaj^^^^^^^^^^^^^^^^",
"^^^^^^^^^^^^^^^^^^222224699qylBBkiridgxvbxgiikAS^^^^^^^^^^^^^^^^",
"^^^^^^^^^^^^^^^^^^222222999qrkBBs00rrigzzgireaBS^^^^^^^^^^^^^^^^",
"^^^^^^^^^^^^^^^^^^22222299999tsw5O1133375331<5ws^^^^^^^^^^^^^^^^",
"^^^^^^^^^^^^^^^^^^112229699999993OO.    .. o+199^^^^^^^^^^^^^^^^",
"^^^^^^^^^^^^^^^^^^o+12249999999903O .. ...XO7q99^^^^^^^^^^^^^^^^",
"^^^^^^^^^^^^^^^^^^oo+12469999999r03OO3377334qq99^^^^^^^^^^^^^^^^",
"^^^^^^^^^^^^^^^^^^Xoo+144999999900779rfzzfre9994^^^^^^^^^^^^^^^^",
"^^^^^^^^^^^^^^^^^^XXXo<22499999900q0rphxxhur9921^^^^^^^^^^^^^^^^",
"^^^^^^^^^^^^^^^^^^XXoo1422999999q9qqqrtuurrq9942^^^^^^^^^^^^^^^^",
"^^^^^^^^^^^^^^^^^^XXXo122<99999999qq9999q9999692^^^^^^^^^^^^^^^^",
"^^^^^^^^^^^^^^^^^^XXXo142499999999999999999922^^^^^^^^^^^^^^^^^^",
"^^^^^^^^^^^^^^^^^^XXXo+1<999999999999q99999942^^^^^^^^^^^^^^^^^^",
"^^^^^^^^^^^^^^^^^^^^XXo+12299999qqq99999994422^^^^^^^^^^^^^^^^^^",
"^^^^^^^^^^^^^^^^^^^^XXoo<<<4499977979797992222^^^^^^^^^^^^^^^^^^",
"^^^^^^^^^^^^^^^^^^^^^^XXo+124494466664664422^^^^^^^^^^^^^^^^^^^^",
"^^^^^^^^^^^^^^^^^^^^^^XoXo<12212222222224224^^^^^^^^^^^^^^^^^^^^",
"^^^^^^^^^^^^^^^^^^^^^^^^..o+142222222222^^^^^^^^^^^^^^^^^^^^^^^^",
"^^^^^^^^^^^^^^^^^^^^^^^^oXoo122222222222^^^^^^^^^^^^^^^^^^^^^^^^",
"^^^^^^^^^^^^^^^^^^^^^^^^^^^^^^^^^^^^^^^^^^^^^^^^^^^^^^^^^^^^^^^^",
"^^^^^^^^^^^^^^^^^^^^^^^^^^^^^^^^^^^^^^^^^^^^^^^^^^^^^^^^^^^^^^^^",
"^^^^^^^^^^^^^^^^^^^^^^^^^^^^^^^^^^^^^^^^^^^^^^^^^^^^^^^^^^^^^^^^",
"^^^^^^^^^^^^^^^^^^^^^^^^^^^^^^^^^^^^^^^^^^^^^^^^^^^^^^^^^^^^^^^^",
"^^^^^^^^^^^^^^^^^^^^^^^^^^^^^^^^^^^^^^^^^^^^^^^^^^^^^^^^^^^^^^^^",
"^^^^^^^^^^^^^^^^^^^^^^^^^^^^^^^^^^^^^^^^^^^^^^^^^^^^^^^^^^^^^^^^",
"^^^^^^^^^^^^^^^^^^^^^^^^^^^^^^^^^^^^^^^^^^^^^^^^^^^^^^^^^^^^^^^^",
"^^^^^^^^^^^^^^^^^^^^^^^^^^^^^^^^^^^^^^^^^^^^^^^^^^^^^^^^^^^^^^^^",
"^^^^^^^^^^^^^^^^^^^^^^^^^^^^^^^^^^^^^^^^^^^^^^^^^^^^^^^^^^^^^^^^",
"^^^^^^^^^^^^^^^^^^^^^^^^^^^^^^^^^^^^^^^^^^^^^^^^^^^^^^^^^^^^^^^^",
"^^^^^^^^^^^^^^^^^^^^^^^^^^^^^^^^^^^^^^^^^^^^^^^^^^^^^^^^^^^^^^^^",
"^^^^^^^^^^^^^^^^^^^^^^^^^^^^^^^^^^^^^^^^^^^^^^^^^^^^^^^^^^^^^^^^"
};
