/* XPM */
static char *result[] = {
/* columns rows colors chars-per-pixel */
"64 64 82 1 ",
"  c #47586E",
". c #48596F",
"X c #4C5D75",
"o c #4F667D",
"O c #51657E",
"+ c #C3912E",
"@ c #C39133",
"# c #CFB43E",
"$ c #D0B435",
"% c #D7C53C",
"& c #D1B557",
"* c #D4B779",
"= c #D6C541",
"- c #E3E247",
"; c #E2E248",
": c #ECF54D",
"> c #DBC87C",
", c #E5E464",
"< c #E6E37E",
"1 c #566782",
"2 c #556A84",
"3 c #546F89",
"4 c #5A6F8B",
"5 c #56728D",
"6 c #5B728E",
"7 c #5C7592",
"8 c #5D7994",
"9 c #5F7C99",
"0 c #617F9C",
"q c #5F819D",
"w c #61819E",
"e c #688A9F",
"r c #70969F",
"t c #5F83A0",
"y c #6384A2",
"u c #6589A7",
"i c #668DAB",
"p c #698DAD",
"a c #6790AE",
"s c #6991AE",
"d c #739AA4",
"f c #749EA9",
"g c #6C95B5",
"h c #6D98B0",
"j c #6E99BA",
"k c #719CBE",
"l c #78A2A7",
"z c #75A1AE",
"x c #76A4B1",
"c c #78A7B6",
"v c #79A8B8",
"b c #739EC1",
"n c #75A2C5",
"m c #77A5C9",
"M c #78A6CB",
"N c #79A8CC",
"B c #7DACD2",
"V c #7FB0D7",
"C c #8BBFB4",
"Z c #D5B887",
"A c #8CC0B6",
"S c #8DC2BA",
"D c #96CEB9",
"F c #D9EC97",
"G c #F1F88E",
"H c #DFCAA2",
"J c #EDE7B4",
"K c #82B4DC",
"L c #86BAE3",
"P c #89BFEA",
"I c #B1DADF",
"U c #8BC2ED",
"Y c #8FC7F4",
"T c #8FC8F4",
"R c #90C9F6",
"E c #93CEFC",
"W c #B0DAE0",
"Q c #F0EAC4",
"! c #F2EACD",
"~ c #F9FCCC",
"^ c #FEFFE7",
"/ c None",
/* pixels */
"////////////////////////////////////////////////////////////////",
"////////////////////////////////////////////////////////////////",
"////////////////////////////////////////////////////////////////",
"////////////////////////////////////////////////////////////////",
"//////////////////^^^^//////////////////////////////////////////",
"//////////////////!!!Q//////////////////////////////////////////",
"////////////////^!HZZ>,FWEEEEE//////////////////////////////////",
"////////////////~J*@@$-FWEEEEE//////////////////////////////////",
"////////////////GG&@+$-FWEEEEEEEEE//////////////////////////////",
"////////////////:-#$#%-FWYPPREEEEE//////////////////////////////",
"//////////////////----////gbPEEEEYLB////////////////////////////",
"//////////////////::::////1uKLLPUUKB////////////////////////////",
"////////////////////////////pppjBKKNKNKN////////////////////////",
"////////////////////////////2110gmMKMnMn////////////////////////",
"//////////////////////////////O40pbMkjjkMB//////////////////////",
"//////////////////////////////11O0kbgpgkNB//////////////////////",
"////////////////////////////////16pgignNBMji////////////////////",
"////////////////////////////////150wqikNMbga////////////////////",
"//////////////////////////////////6538igggagnB//////////////////",
"//////////////////////////////////OoXo8yuagbNB//////////////////",
"//////////////////////////////////// Xo5ygnMBKNK////////////////",
"////////////////////////////////////   3ukNNNMmm////////////////",
"////////////////////////////////////   5gNBNkggj////////////////",
"////////////////////////////////////X X7gnmngiii////////////////",
"//////////////////////////////////  XX160uggpiiiii//////////////",
"//////////////////////////////////   X1448yiiiiiii//////////////",
"////////////////////////////////X X .X2647yiiiiiii//////////////",
"////////////////////////////////   XXO2448uiiiiiii//////////////",
"//////////////////////////////42X  X124448yiiiiiiiii////////////",
"//////////////////////////////42OXoO688768yiiiiiiiii////////////",
"//////////////////////////////442226wyyw78yiiiiiiiiuy0//////////",
"//////////////////////////////444660yipy88yiiiiiiiipy0//////////",
"////////////////////////////44444600yiuy88tuaaauaiiu90//////////",
"////////////////////////////4444400wupiuqquaauuaiiiuuy//////////",
"////////////////////////////4446000wuiiituiiuaiiiiiiuuyw////////",
"////////////////////////////44467000uiiiiiiiauiiiiiiuuyw////////",
"//////////////////////////44444700wwuiiiiiiiiiiiiiiiiuy9////////",
"//////////////////////////46444700wwuiiiiiiiiiiiiiiiauy9////////",
"//////////////////////////46444600wwuiiiiiiiiiiiaiiiuuw9////////",
"//////////////////////////14444700wwysxxhaaiiiiiiiiiahll////////",
"//////////////////////////XO24467000wfASvgpiiiiiiiiaacCD////////",
"//////////////////////////XXO24700000dCCzipaaggjgggiixCD////////",
"//////////////////////////  XO2600000edrq8igjknNMnji88df////////",
"//////////////////////////X.XXO46000000835tutajkbjat5579////////",
"////////////////////////// ..XXO20000000q853355875359987////////",
"//////////////////////////X.. XX14000000uq522oo322359084////////",
"//////////////////////////.....X10000000qwqqqqqqqqq998//////////",
"//////////////////////////.....O16600000qwuuuuuutatt84//////////",
"////////////////////////////...X2440000000yyyyyyuyy974//////////",
"////////////////////////////...XO146400000000000qq0864//////////",
"////////////////////////////// XXO1440000w0000000077////////////",
"//////////////////////////////..XXO414000000000w0074////////////",
"////////////////////////////////..XO26660000000000//////////////",
"////////////////////////////////...X24400000w00000//////////////",
"////////////////////////////////////////////////////////////////",
"////////////////////////////////////////////////////////////////",
"////////////////////////////////////////////////////////////////",
"////////////////////////////////////////////////////////////////",
"////////////////////////////////////////////////////////////////",
"////////////////////////////////////////////////////////////////",
"////////////////////////////////////////////////////////////////",
"////////////////////////////////////////////////////////////////",
"////////////////////////////////////////////////////////////////",
"////////////////////////////////////////////////////////////////"
};
