/* XPM */
static char *result[] = {
/* columns rows colors chars-per-pixel */
"64 64 59 1 ",
"  c #4F2913",
". c #522B14",
"X c #542F18",
"o c #573017",
"O c #553119",
"+ c #5A341B",
"@ c #5D381E",
"# c #60391D",
"$ c #5D3A21",
"% c #613E23",
"& c #5A4432",
"* c #5E4834",
"= c #634126",
"- c #684326",
"; c #644529",
": c #69462A",
"> c #664A2D",
", c #6B4A2D",
"< c #6B4E31",
"1 c #634E3C",
"2 c #714F33",
"3 c #6C5033",
"4 c #64513E",
"5 c #725334",
"6 c #725638",
"7 c #765A3B",
"8 c #795C3D",
"9 c #675340",
"0 c #695542",
"q c #6B5846",
"w c #6E5D4A",
"e c #705C47",
"r c #7B5F40",
"t c #715E49",
"y c #7D6343",
"u c #74614D",
"i c #766653",
"p c #786651",
"a c #7D6852",
"s c #7C6D5B",
"d c #7E705F",
"f c #806646",
"g c #816749",
"h c #846A4B",
"j c #886F4F",
"k c #886F50",
"l c #8C7354",
"z c #81705D",
"x c #8F7758",
"c c #8F7858",
"v c #907755",
"b c #917856",
"n c #937B5B",
"m c #857562",
"M c #8B7B66",
"N c #978164",
"B c #9D8664",
"V c #9E8768",
"C c None",
/* pixels */
"CCCCCCCCCCCCCCCCCCCCCCCCCCCCCCCCCCCCCCCCCCCCCCCCCCCCCCCCCCCCCCCC",
"CCCCCCCCCCCCCCCCCCCCCCCCCCCCCCCCCCCCCCCCCCCCCCCCCCCCCCCCCCCCCCCC",
"CCCCCCCCCCCCCCCCCCCCCCCCCCCCCCCCCCCCCCCCCCCCCCCCCCCCCCCCCCCCCCCC",
"CCCCCCCCCCCCCCCCCCCCCCCCCCCCCCCCCCCCCCCCCCCCCCCCCCCCCCCCCCCCCCCC",
"CCCCCCCCCCCCCCCCCCCCCCCCCCCCCCCCCCCCCCCCCCCCCCCCCCCCCCCCCCCCCCCC",
"CCCCCCCCCCCCCCCCCCCCCCCCCCCCCCCCCCCCCCCCCCCCCCCCCCCCCCCCCCCCCCCC",
"CCCCCCCCCCCCCCCCCCCCCCCCCCCCCCCCCCCCCCCCCCCCCCCCCCCCCCCCCCCCCCCC",
"CCCCCCCCCCCCCCCCCCCCCCCCCCCCCCCCCCCCCCCCCCCCCCCCCCCCCCCCCCCCCCCC",
"CCCCCCCCCCCCCCCCCCCCCCCCCCCCCCCCCCCCCCCCCCCCCCCCCCCCCCCCCCCCCCCC",
"CCCCCCCCCCCCCCCCCCCCCCCCCCCCCCCCCCCCCCCCCCCCCCCCCCCCCCCCCCCCCCCC",
"CCCCCCCCCCCCCCCCCCCCCCCCCCCCCCCCCCCCCCCCCCCCCCCCCCCCCCCCCCCCCCCC",
"CCCCCCCCCCCCCCCCCC>:,+CCCCCCCCCCCCCCCCCCCCC2522CCCCCCCCCCCCCCCCC",
"CCCCCCCCCCCCCCCCC<lyfOCCCCCCCCCCCCCCCCCCCCC<vhh2CCCCCCCCCCCCCCCC",
"CCCCCCCCCCCCCCCCC,lff+CCCCCCCCCCCCCCCCCCCCC,vjh2CCCCCCCCCCCCCCCC",
"CCCCCCCCCCCCCCCC<bhh<OCCCCCCCCCCCCCCCCCCCCC,fvkl2CCCCCCCCCCCCCCC",
"CCCCCCCCCCCCCCCC,bhh5+CCCCCCCCCCCCCCCCCCCCC,rvvk2CCCCCCCCCCCCCCC",
"CCCCCCCCCCCCCCCC<bhh3OCCCCCCCCCCCCCCCCCCCCC:gVnn2CCCCCCCCCCCCCCC",
"CCCCCCCCCCCCCCC:nlll3+CCCCCCCCCCCCCCCCCCCCC:gnnnb,CCCCCCCCCCCCCC",
"CCCCCCCCCCCCCCC>xlk3<OCCCCCCCCCCCCCCCCCCCCC2ffVnb,CCCCCCCCCCCCCC",
"CCCCCCCCCCCCCCC:Nxx<3OCCCCCCCCCCCCCCCCCCCCC%frVnn,CCCCCCCCCCCCCC",
"CCCCCCCCCCCCCCC:Nxl33oCCCCCCCCCCCCCCCCCCCCC2f8nnn,CCCCCCCCCCCCCC",
"CCCCCCCCCCCCCCC;Nxl3<oCCCCCCCCCCCCCCCCCCCCC2ffnnn:CCCCCCCCCCCCCC",
"CCCCCCCCCCCCCC;Nxxl<<oCCCCCCCCCCCCCCCCCCCCC2ffVnnn:CCCCCCCCCCCCC",
"CCCCCCCCCCCCCC-Nxl<<<XCCCCCCCCCCCCCCCCCCCCC:fggVnn-CCCCCCCCCCCCC",
"CCCCCCCCCCCCCC-Nxx<<<oCCCCCCCCCCCCCCCCCCCCC,fffnnn%CCCCCCCCCCCCC",
"CCCCCCCCCCCCCC-Nkk<<,.CCCCCCCCCCCCCCCCCCCCC,fffBbb%CCCCCCCCCCCCC",
"CCCCCCCCCCCCCC=Nlk<X<oCCCCCCCCCCCCCCCCCCCCC:f,fBbx%CCCCCCCCCCCCC",
"CCCCCCCCCCCCCC=Njk.q.oCCCCCCCCCCCCCCCCCCCCC--m,Blk#CCCCCCCCCCCCC",
"CCCCCCCCCCCCCC=#@OX>..CCCCCCCCCCCCCCCCCCCCC--a:--%#CCCCCCCCCCCCC",
"CCCCCCCCCCCCCC=zmz0X<.CCCCCCCCCCCCCCCCCCCCC%7#mMMM@CCCCCCCCCCCCC",
"CCCCCCCCCCCCCC%upy*.>.CCCCCCCCCCCCCCCCCCCCC#f#paaa@CCCCCCCCCCCCC",
"CCCCCCCCCCCCCC%uuu.>>.CCCCCCCCCCCCCCCCCCCCC#f8#aaa@CCCCCCCCCCCCC",
"CCCCCCCCCCCCCC$oXX<<,.CCCCCCCCCCCCCCCCCCCCC#yf5####CCCCCCCCCCCCC",
"CCCCCCCCCCCCCC%<,,>,>.CCCCCCCCCCCCCCCCCCCCC#yfyh85+CCCCCCCCCCCCC",
"CCCCCCCCCCCCCC$hyr>>>XCCCCCCCCCCCCCCCCCCCCC#fyylhg+CCCCCCCCCCCCC",
"CCCCCCCCCCCCCC$hyy>>.9.CCCCCCCCCCCCCCCCCCC#m+yrlgg+CCCCCCCCCCCCC",
"CCCCCCCCCCCCCC$hry>>.& CCCCCCCCCCCCCCCCCCC#p#r8lggoCCCCCCCCCCCCC",
"CCCCCCCCCCCCCC$h77;> & CCCCCCCCCCCCCCCCCCC#p#r8lyyOCCCCCCCCCCCCC",
"CCCCCCCCCCCCCC@h77>=.&.CCCCCCCCCCCCCCCCCCC#po88lryoCCCCCCCCCCCCC",
"CCCCCCCCCCCCCC$a87;;.& CCCCCCCCCCCCCCCCCCC+ro88lr8XCCCCCCCCCCCCC",
"CCCCCCCCCCCCCC$y77;=;XCCCCCCCCCCCCCCCCCCCCC#777jrrXCCCCCCCCCCCCC",
"CCCCCCCCCCCCCC$y77&== CCCCCCCCCCCCCCCCCCCCCo765j88.CCCCCCCCCCCCC",
"CCCCCCCCCCCCCC@yy7==; CCCCCCCCCCCCCCCCCCCCC+556hr8.CCCCCCCCCCCCC",
"CCCCCCCCCCCCCC@y66===.CCCCCCCCCCCCCCCCCCCCCo565h77XCCCCCCCCCCCCC",
"CCCCCCCCCCCCCC+y66=== CCCCCCCCCCCCCCCCCCCCCX2%5h77 CCCCCCCCCCCCC",
"CCCCCCCCCCCCCC+r66=.= CCCCCCCCCCCCCCCCCCCCCo$a+h66.CCCCCCCCCCCCC",
"CCCCCCCCCCCCCCXu66 4. CCCCCCCCCCCCCCCCCCCCC.@qOh67 CCCCCCCCCCCCC",
"CCCCCCCCCCCCCC $++.& .CCCCCCCCCCCCCCCCCCCCC.:+s   .CCCCCCCCCCCCC",
"CCCCCCCCCCCCCC.zzs4 @.CCCCCCCCCCCCCCCCCCCCC ,Xqzzs.CCCCCCCCCCCCC",
"CCCCCCCCCCCCCC.wtt*. 4 CCCCCCCCCCCCCCCCCCC a.=Ottt.CCCCCCCCCCCCC",
"CCCCCCCCCCCCCC tww $ & CCCCCCCCCCCCCCCCCCC 4.:Otwt CCCCCCCCCCCCC",
"CCCCCCCCCCCCCC.   @$ & CCCCCCCCCCCCCCCCCCC 4.,-    CCCCCCCCCCCCC",
"CCCCCCCCCCCCCC.>;>+ 9& CCCCCCCCCCCCCCCCCCC 4w <5,, CCCCCCCCCCCCC",
"CCCCCCCCCCCCCC y66$ && CCCCCCCCCCCCCCCCCCC 4q ,f67 CCCCCCCCCCCCC",
"CCCCCCCCCCCCCC r66+ & CCCCCCCCCCCCCCCCCCCCC 0 <y67 CCCCCCCCCCCCC",
"CCCCCCCCCCCCCC y67 1& CCCCCCCCCCCCCCCCCCCCC qs y63 CCCCCCCCCCCCC",
"CCCCCCCCCCCCCC     && CCCCCCCCCCCCCCCCCCCCC qw     CCCCCCCCCCCCC",
"CCCCCCCCCCCCCC.iii0& CCCCCCCCCCCCCCCCCCCCCCC wmuuu CCCCCCCCCCCCC",
"CCCCCCCCCCCCCC uqq&& CCCCCCCCCCCCCCCCCCCCCCC wd900 CCCCCCCCCCCCC",
"CCCCCCCCCCCCCC iqq&& CCCCCCCCCCCCCCCCCCCCCCC wdq09 CCCCCCCCCCCCC",
"CCCCCCCCCCCCCC uqq& CCCCCCCCCCCCCCCCCCCCCCCCC s900 CCCCCCCCCCCCC",
"CCCCCCCCCCCCCC uqq& CCCCCCCCCCCCCCCCCCCCCCCCC d990 CCCCCCCCCCCCC",
"CCCCCCCCCCCCCC iqq& CCCCCCCCCCCCCCCCCCCCCCCCC s99q CCCCCCCCCCCCC",
"CCCCCCCCCCCCCC     CCCCCCCCCCCCCCCCCCCCCCCCCCC     CCCCCCCCCCCCC"
};
