/* XPM */
static char *result[] = {
/* columns rows colors chars-per-pixel */
"64 64 137 2 ",
"   c #492513",
".  c #4F2913",
"X  c #4F2A14",
"o  c #4E2A16",
"O  c #502B15",
"+  c #502C16",
"@  c #512D19",
"#  c #512E19",
"$  c #512E1A",
"%  c #512F1A",
"&  c #522F1A",
"*  c #522F1B",
"=  c #4F311E",
"-  c #53301A",
";  c #52301B",
":  c #52301C",
">  c #53321D",
",  c #51311F",
"<  c #53321E",
"1  c #56321C",
"2  c #4F3625",
"3  c #513220",
"4  c #523422",
"5  c #533422",
"6  c #533523",
"7  c #543420",
"8  c #543522",
"9  c #553522",
"0  c #543523",
"q  c #553622",
"w  c #553623",
"e  c #543624",
"r  c #553825",
"t  c #553826",
"y  c #563826",
"u  c #5A3B27",
"i  c #53392B",
"p  c #563A28",
"a  c #563A29",
"s  c #573B29",
"d  c #543A2A",
"f  c #563B2A",
"g  c #573B2A",
"h  c #573C2C",
"j  c #573C2D",
"k  c #573D2D",
"l  c #573E2E",
"z  c #593D2A",
"x  c #573F30",
"c  c #563F31",
"v  c #564032",
"b  c #574234",
"n  c #574335",
"m  c #584031",
"M  c #5B4231",
"N  c #584132",
"B  c #5E4532",
"V  c #584234",
"C  c #594234",
"Z  c #584335",
"A  c #594436",
"S  c #594537",
"D  c #594538",
"F  c #5A4739",
"G  c #5A473A",
"H  c #5B473A",
"J  c #5B483B",
"K  c #5B483C",
"L  c #5B493C",
"P  c #5C493D",
"I  c #5C4A3D",
"U  c #5C4B3E",
"Y  c #5C4B3F",
"T  c #624937",
"R  c #5C4B40",
"E  c #5C4D41",
"W  c #5D4D41",
"Q  c #5D4D42",
"!  c #5D4F43",
"~  c #5E4F44",
"^  c #5E4F45",
"/  c #5D5044",
"(  c #5C5147",
")  c #5E5146",
"_  c #5C5247",
"`  c #5D5247",
"'  c #5D5248",
"]  c #5D5348",
"[  c #5F5349",
"{  c #665444",
"}  c #675544",
"|  c #655C55",
" . c #655D56",
".. c #655F57",
"X. c #665F58",
"o. c #666057",
"O. c #676159",
"+. c #676259",
"@. c #68625A",
"#. c #68635A",
"$. c #68635B",
"%. c #69635B",
"&. c #69645B",
"*. c #69645C",
"=. c #69655C",
"-. c #6A645C",
";. c #6A655C",
":. c #6A645D",
">. c #6A655D",
",. c #6B655D",
"<. c #6A665C",
"1. c #6B665D",
"2. c #6B675D",
"3. c #6B675E",
"4. c #6C665E",
"5. c #6C675E",
"6. c #6C675F",
"7. c #6C685E",
"8. c #6D685F",
"9. c #6D695F",
"0. c #706B62",
"q. c #757068",
"w. c #757169",
"e. c #767469",
"r. c #7C7A70",
"t. c #7D7B70",
"y. c #7D7B71",
"u. c #848279",
"i. c #868579",
"p. c #86847B",
"a. c #88877B",
"s. c #8D8B83",
"d. c #918F88",
"f. c #929088",
"g. c #94928B",
"h. c #99978F",
"j. c None",
/* pixels */
"u u u u u u u u u u u u u u u u j.u u u u u u u u u u u u u u u u u u u u u u u u u u u u u u u j.u u u u u u u u u u u u u u u ",
"i.i.i.i.i.i.i.i.i.i.i.i.i.i.a.i.B i.i.i.i.i.i.i.i.i.i.i.i.i.i.i.i.i.i.i.i.i.i.i.i.i.i.i.i.i.a.i.B i.i.i.i.i.i.i.i.i.i.i.i.i.i.i.",
"i.i.i.i.i.i.i.i.i.i.i.i.i.i.i.i.T i.i.i.i.i.i.i.i.i.i.i.i.i.i.i.i.i.i.i.i.i.i.i.i.i.i.i.i.i.i.i.T i.i.i.i.i.i.i.i.i.i.i.i.i.i.i.",
"i.i.i.i.i.i.i.i.i.i.i.i.i.i.i.i.} i.i.i.i.i.i.i.i.i.i.i.i.i.i.i.i.i.i.i.i.i.i.i.i.i.i.i.i.i.i.i.} i.i.i.i.i.i.i.i.i.i.i.i.i.i.i.",
"d.d.d.d.d.d.d.d.d.d.d.f.g.h.h.h.{ g.h.h.h.g.g.g.g.g.g.g.g.g.g.g.d.d.d.d.d.d.d.d.d.d.d.f.g.h.h.h.{ g.h.h.h.g.g.g.g.g.g.g.g.g.g.g.",
"9.9.9.8.8.8.8.8.8.8.9.9.9.9.9.8.M 8.8.8.7.8.8.8.8.8.5.7.7.7.7.7.9.9.9.8.8.8.8.8.8.8.9.9.9.9.9.8.M 8.8.8.7.8.8.8.8.8.5.7.7.7.7.7.",
"8.8.8.8.8.8.8.8.8.8.8.8.8.9.8.8.M 8.8.7.7.7.8.8.8.7.5.5.5.5.5.5.8.8.8.8.8.8.8.8.8.8.8.8.8.9.8.8.M 8.8.7.7.7.8.8.8.7.5.5.5.5.5.5.",
"8.8.8.8.8.8.8.8.7.7.7.7.7.7.5.5.M 8.7.7.5.5.7.7.7.5.5.5.5.5.5.5.8.8.8.8.8.8.8.8.7.7.7.7.7.7.5.5.M 8.7.7.5.5.7.7.7.5.5.5.5.5.5.5.",
"8.7.7.7.7.7.7.7.7.7.7.5.5.5.5.5.M 5.5.5.5.5.2.2.5.5.5.5.5.4.1.1.8.7.7.7.7.7.7.7.7.7.7.5.5.5.5.5.M 5.5.5.5.5.2.2.5.5.5.5.5.4.1.1.",
"5.5.5.5.5.5.5.5.5.5.5.2.2.2.2.2.M 1.1.1.1.1.1.1.1.1.1.1.1.1.1.1.5.5.5.5.5.5.5.5.5.5.5.2.2.2.2.2.M 1.1.1.1.1.1.1.1.1.1.1.1.1.1.1.",
"2.1.1.1.1.1.1.1.1.1.1.1.1.1.1.1.M 1.1.1.1.1.,.,.;.;.;.;.<.<.<.<.2.1.1.1.1.1.1.1.1.1.1.1.1.1.1.1.M 1.1.1.1.1.,.,.;.;.;.;.<.<.<.<.",
";.;.;.;.;.;.;.;.;.;.;.;.,.,.,.,.z ,.,.;.-.-.-.-.-.-.-.-.;.;.;.;.;.;.;.;.;.;.;.;.;.;.;.;.,.,.,.,.z ,.,.;.-.-.-.-.-.-.-.-.;.;.;.;.",
";.;.;.;.;.;.;.;.;.;.;.;.;.;.-.;.< &.&.&.&.&.&.&.&.&.&.&.&.&.&.&.;.;.;.;.;.;.;.;.;.;.;.;.;.;.-.;.< &.&.&.&.&.&.&.&.&.&.&.&.&.&.&.",
"&.&.-.&.&.&.&.&.&.&.&.&.&.&.&.&.< %.%.%.%.%.%.&.&.&.&.&.&.&.&.&.&.&.-.&.&.&.&.&.&.&.&.&.&.&.&.&.< %.%.%.%.%.%.&.&.&.&.&.&.&.&.&.",
"%.%.%.%.%.%.%.%.%.%.%.%.%.%.#.#.< #.#.#.#.#.#.#.#.#.#.#.#.#.%.%.%.%.%.%.%.%.%.%.%.%.%.%.%.%.#.#.< #.#.#.#.#.#.#.#.#.#.#.#.#.%.%.",
"+.+.+.+.+.+.+.@.+.@.@.@.#.#.#.@.< @.@.@.@.@.@.@.@.@.#.#.@.#.#.#.+.+.+.+.+.+.+.@.+.@.@.@.#.#.#.@.< @.@.@.@.@.@.@.@.@.#.#.@.#.#.#.",
"O.O.O.O.O.O.O.O.O.O.O.O.O.O.O.O.< O.O.O.O.O.O.O.O.O.O.O.O.O.O.O.O.O.O.O.O.O.O.O.O.O.O.O.O.O.O.O.< O.O.O.O.O.O.O.O.O.O.O.O.O.O.O.",
"O.O.O.O.O.O.O.O.O.O.O.O.O.O.O.O.< O.O.O.O.O.O.O.O.O.O.O.O.O.O.O.O.O.O.O.O.O.O.O.O.O.O.O.O.O.O.O.< O.O.O.O.O.O.O.O.O.O.O.O.O.O.O.",
". . . . . . . . . . . . . O X X ] . . . . . . . . . . . . .         . . . . . . . . . . . . . . ] . . . . . . . . . . . . . . . ",
"_ _ _ _ _ _ _ _ _ _ _ _ _ _ _ ] _ ] ] ] ] . j.j.j.j.j.j.j.j.j.j.j.j.j.j.j.j.j.j.j.j.  ] ] ] ] ] ] ] ] ] _ _ _ = ( ( _ ` ` ` ` ' ",
"_ _ _ _ _ _ _ _ _ _ _ _ _ _ _ ] _ ] ] .   j.j.j.j.j.j.j.j.j.j.j.j.j.j.j.j.j.j.j.j.j.j.    ] ] ] ] ] ] ] _ _ _ = _ _ ` ` ` ` ` ' ",
"_ _ _ _ _ _ _ _ _ _ _ _ _ _ _ ] _ ] . j.j.j.j.j.j.j.j.j.j.j.j.j.j.j.j.j.j.j.j.j.j.j.j.j.j.  ] ] ] ] ] ] _ _ _ 2 _ _ ` ` ` ` ` ' ",
"_ _ _ _ _ _ _ _ _ _ _ _ _ _ _ ] ]   j.j.j.j.j.j.j.j.j.j.j.j.j.j.j.j.j.j.j.j.j.j.j.j.j.j.j.j.. ] ] ] ] ] _ _ _ 2 _ _ _ ` ` ` ` ' ",
"_ _ _ _ _ _ _ _ _ _ _ _ _ _ _ ] . j.j.j.j.j.j.j.j.j.j.j.j.j.j.j.j.j.j.j.j.j.j.j.j.j.j.j.j.j.j.. ] ] ] ] _ _ _ 2 _ _ _ ` ` ` ` ' ",
"_ _ _ _ _ _ _ _ _ _ _ _ _ _ _ ]   j.j.j.j.j.j.j.j.j.j.j.j.j.j.j.j.j.j.j.j.j.j.j.j.j.j.j.j.j.j.. ] ] ] ] _ _ _ 2 ( ( _ ` ` ` ` ` ",
"O.O.O.O.O.O.O.O.O.O.O.O.O.O.,.. j.j.j.j.j.j.j.j.j.j.j.j.j.j.j.j.j.j.j.j.j.j.j.j.j.j.j.j.j.j.j.j.. ;.....O.O.O.N O.O.O.O.O.O.O.O.",
"O.O.O.O.O.O.O.O.O.O.O.O.O.O.,.. j.j.j.j.j.j.j.j.j.j.j.j.j.j.j.j.j.j.j.j.j.j.j.j.j.j.j.j.j.j.j.j.  &.....O.O.O.e O.O.O.O.O.O.O.O.",
") ) ) ) ) W W W ) ) ) [ [ J I j.j.j.j.j.j.j.j.j.j.j.j.j.j.j.j.j.j.j.j.j.j.j.j.j.j.j.j.j.j.j.j.j.j.3 d N N l f h A K [ [ [ [ [ [ ",
"8.8.8.8.8.8.W 6.6.6.6.6.6.8.8.w j.j.j.j.j.j.j.j.j.j.j.j.j.j.j.j.j.j.j.j.j.j.j.j.j.j.j.j.j.j.j.j.6 8.8.8.6.6.6.6.6.6.6.6.6.6.6.6.",
"O.O.O.O.O.O.W O.O.O.O.O.O.O.,.a j.j.j.j.j.j.j.j.j.j.j.j.j.j.j.j.j.j.j.j.j.j.j.j.j.j.j.j.j.j.j.j.3 ,.O.O.O.O.O.O.O.O.O.O.O.O.O.O.",
"O.O.O.O.O.O.W O.O.O.O.O.O.O.1.g j.j.j.j.j.j.j.j.j.j.j.j.j.j.j.j.j.j.j.j.j.j.j.j.j.j.j.j.j.j.j.j., 1.O.O.O.O.O.O.O.O.O.O.O.O.O.O.",
"O.O.O.O.O.O.W O.O.O.O.O.O.O.1.s j.j.j.j.j.j.j.j.j.j.j.j.j.j.j.j.j.j.j.j.j.j.j.j.j.j.j.j.j.j.j.j., 1.O.O.O.O.O.O.O.O.O.O.O.O.O.O.",
"O.O.O.O.O.O.W O.O.O.O.O.O.O.1.y j.j.j.j.j.j.j.j.j.j.j.j.j.j.j.j.j.j.j.j.j.j.j.j.j.j.j.j.j.j.j.j., 1.O.O.O.O.O.O.O.O.O.O.O.O.O.O.",
"O.O.O.O.O.O.W O.O.O.O.O.O.O.1.r j.j.j.j.j.j.j.j.j.j.j.j.j.j.j.j.j.j.j.j.j.j.j.j.j.j.j.j.j.j.j.j.4 1.O.O.O.O.O.O.O.O.O.O.O.O.O.O.",
"O.O.O.O.O.O.N O.O.O.O.O.O.O.1.s j.j.j.j.j.j.j.j.j.j.j.j.j.j.j.j.j.j.j.j.j.j.j.j.j.j.j.j.j.j.j.j.s 1.O.O.O.O.O.O.O.O.O.O.O.O.O.O.",
"O.O.O.O.O.O.x O.O.O.O.O.O.O.1.i j.j.j.j.j.j.j.j.j.j.j.j.j.j.j.j.j.j.j.j.j.j.j.j.j.j.j.j.j.j.j.j.s O.O.O.O.O.O.O.O.O.O.O.O.O.O.O.",
"J J J j j e 0 m C L [ [ [ G G j.j.j.j.j.j.j.j.j.j.j.j.j.j.j.j.j.j.j.j.j.j.j.j.j.j.j.j.j.j.j.j.j.j.c v D F J L Q L L H [ [ [ [ [ ",
"*.*.*.*.*.*.*.*.*.*.*.*.*.3.3.o j.j.j.j.j.j.j.j.j.j.j.j.j.j.j.j.j.j.j.j.j.j.j.j.j.j.j.j.j.j.j.j.5 6.6.6.6.6.5.R 6.6.6.6.6.6.6.6.",
"X.X.X.X.X.X.X.X.X.X.X.X.X.X.&.@ j.j.j.j.j.j.j.j.j.j.j.j.j.j.j.j.j.j.j.j.j.j.j.j.j.j.j.j.j.j.j.j.5 *.X.X.X.X.X.Y X.X.X.X.X.X.X.X.",
"X.X.X.X.X.X.X.X.X.X.X.X.X.X.*.# j.j.j.j.j.j.j.j.j.j.j.j.j.j.j.j.j.j.j.j.j.j.j.j.j.j.j.j.j.j.j.j.6 >.....X.X.X.P X.X.X.X.X.X.X.X.",
"X.X.X.X.X.X.X.X.X.X.X.X.X.X.*.% j.j.j.j.j.j.j.j.j.j.j.j.j.j.j.j.j.j.j.j.j.j.j.j.j.j.j.j.j.j.j.j.w >.....X.X.X.^ | X.X.X.X.X.X.X.",
"X.X.X.X.X.X.X.X.X.X.X.X.X.X.=.* j.j.j.j.j.j.j.j.j.j.j.j.j.j.j.j.j.j.j.j.j.j.j.j.j.j.j.j.j.j.j.j.6 >.....X.X.X.^  .X.X.X.X.X.X.X.",
"X.X.X.X.X.X.X.X.X.X.X.X.X.X.=.; j.j.j.j.j.j.j.j.j.j.j.j.j.j.j.j.j.j.j.j.j.j.j.j.j.j.j.j.j.j.j.j.w >.....X.X.X.~ X.X.X.X.X.X.X.X.",
"X.X.X.X.X.X.X.X.X.X.X.X.X.X.=.: j.j.j.j.j.j.j.j.j.j.j.j.j.j.j.j.j.j.j.j.j.j.j.j.j.j.j.j.j.j.j.j.w >.....X.X.X.0 X.X.X.X.X.X.X.X.",
"X.X.X. .X.X.X.X.X.X.X.X.X.X.$.. j.j.j.j.j.j.j.j.j.j.j.j.j.j.j.j.j.j.j.j.j.j.j.j.j.j.j.j.j.j.j.j.7 $.....X.X.X.0 X.X.X.X.X.X.X.X.",
"[ [ [ U U L U U / / / / ! S V j.j.j.j.j.j.j.j.j.j.j.j.j.j.j.j.j.j.j.j.j.j.j.j.j.j.j.j.j.j.j.j.j.j.Z n b N N N N N m E E E E E E ",
"6.6.6.6.6.6.U 6.6.6.6.6.6.6.6.t j.j.j.j.j.j.j.j.j.j.j.j.j.j.j.j.j.j.j.j.j.j.j.j.j.j.j.j.j.j.j.j.8 6.6.6.6.6.6.6.6.6.6.6.6.6.6.6.",
"X.X.X.X.X.X.U X.X.X.X.X.X.X.-.p j.j.j.j.j.j.j.j.j.j.j.j.j.j.j.j.j.j.j.j.j.j.j.j.j.j.j.j.j.j.j.j.8 O.X.X.X.X.X.X.X.X.X.X.X.X.X.X.",
"X.X.X.X.X.X.U X.X.X.X.X.X.X.:.t j.j.j.j.j.j.j.j.j.j.j.j.j.j.j.j.j.j.j.j.j.j.j.j.j.j.j.j.j.j.j.j.8 :.X.X.X.X.X.X.X.X.X.X.X.X.X.X.",
"X.X.X.X.X.X.) X.X.X.X.X.X.X.:.t j.j.j.j.j.j.j.j.j.j.j.j.j.j.j.j.j.j.j.j.j.j.j.j.j.j.j.j.j.j.j.j.9 :.X.X.X.X.X.X.X.X.X.X.X.X.X.X.",
"X.X.X.X.X.X.[ X.X.X.X.X.X.X.:.t j.j.j.j.j.j.j.j.j.j.j.j.j.j.j.j.j.j.j.j.j.j.j.j.j.j.j.j.j.j.j.j.9 >.X.X.X.X.X.X.X.X.X.X.X.X.X.X.",
"X.X.X.X.X.X.N X.X.X.X.X.X.X.:.: j.j.j.j.j.j.j.j.j.j.j.j.j.j.j.j.j.j.j.j.j.j.j.j.j.j.j.j.j.j.j.j.q >.X.X.X.X.X.X.X.X.X.X.X.X.X.X.",
"X.X.X.X.X.X.k X.X.X.X.X.X.X.:.$ j.j.j.j.j.j.j.j.j.j.j.j.j.j.j.j.j.j.j.j.j.j.j.j.j.j.j.j.j.j.j.j.q >.X.X.X.X.X.X.X.X.X.X.X.X.X.X.",
"X.X.X.X.X.X.l X.X.X.X.X.X.X.:.+ j.j.j.j.j.j.j.j.j.j.j.j.j.j.j.j.j.j.j.j.j.j.j.j.j.j.j.j.j.j.j.j.q :.X.X.X.X.X.X.X.X.X.X.X.X.X.X.",
"1 1 1 1 1 1 1 1 1 1 1 1 1 1 1 1 j.j.j.j.j.j.j.j.j.j.j.j.j.j.j.j.j.j.j.j.j.j.j.j.j.j.j.j.j.j.j.j.. . . . 1 1 1 1 1 1 1 1 1 1 1 1 ",
"e.e.e.e.e.e.e.e.e.e.e.e.e.e.e.y.& j.j.j.j.j.j.j.j.j.j.j.j.j.j.j.j.j.j.j.j.j.j.j.j.j.j.j.j.j.j.< u.e.e.e.e.e.e.e.e.e.e.e.e.e.e.e.",
"e.e.e.e.e.e.e.e.e.e.e.e.e.e.e.t.- j.j.j.j.j.j.j.j.j.j.j.j.j.j.j.j.j.j.j.j.j.j.j.j.j.j.j.j.j.j.. u.e.e.e.e.e.e.e.e.e.e.e.e.e.e.e.",
"e.e.e.e.e.e.e.e.e.e.e.e.e.e.e.r.> j.j.j.j.j.j.j.j.j.j.j.j.j.j.j.j.j.j.j.j.j.j.j.j.j.j.j.j.j.j.. u.e.e.e.e.e.e.e.e.e.e.e.e.e.e.e.",
"e.e.e.e.e.e.e.e.e.e.e.e.e.e.e.r.. j.j.j.j.j.j.j.j.j.j.j.j.j.j.j.j.j.j.j.j.j.j.j.j.j.j.j.j.j.j.. u.e.e.e.e.e.e.e.e.e.e.e.e.e.e.e.",
"p.p.p.p.p.p.p.p.p.p.p.p.p.p.p.p.. j.j.j.j.j.j.j.j.j.j.j.j.j.j.j.j.j.j.j.j.j.j.j.j.j.j.j.j.j.j.. s.s.p.p.p.p.p.p.p.p.p.p.p.p.p.p.",
"o.o.o.o.o.o.o.o.o.o.o.o.o.o.o.0.. j.j.j.j.j.j.j.j.j.j.j.j.j.j.j.j.j.j.j.j.j.j.j.j.j.j.j.j.j.j.. q.o.o.o.o.o.o.o.o.o.o.o.o.o.o.o.",
"o.o.o.o.o.o.o.o.o.o.o.o.o.o.o.0.. j.j.j.j.j.j.j.j.j.j.j.j.j.j.j.j.j.j.j.j.j.j.j.j.j.j.j.j.j.j.. q.o.o.o.o.o.o.o.o.o.o.o.o.o.o.o.",
"o.o.o.o.o.o.o.o.o.o.o.o.o.o.o.0.. j.j.j.j.j.j.j.j.j.j.j.j.j.j.j.j.j.j.j.j.j.j.j.j.j.j.j.j.j.j.. w.o.o.o.o.o.o.o.o.o.o.o.o.o.o.o.",
". . . . . . . . . . . . . . . . j.j.j.j.j.j.j.j.j.j.j.j.j.j.j.j.j.j.j.j.j.j.j.j.j.j.j.j.j.j.j.j.. . . . . . . . . . . . . . . . "
};
