/* XPM */
static char *result[] = {
/* columns rows colors chars-per-pixel */
"64 64 65 1 ",
"  c #4D2712",
". c #4E2812",
"X c #522B14",
"o c #532F18",
"O c #5A3117",
"+ c #56321A",
"@ c #5A351D",
"# c #5E391E",
"$ c #603A1F",
"% c #5B3720",
"& c #5E3A21",
"* c #623D23",
"= c #644126",
"- c #664529",
"; c #69462A",
": c #67482B",
"> c #6A4A2D",
", c #6C4E31",
"< c #644F3C",
"1 c #704E31",
"2 c #6E5234",
"3 c #66523F",
"4 c #6C563E",
"5 c #715537",
"6 c #765837",
"7 c #735738",
"8 c #755A3A",
"9 c #795E3E",
"0 c #7A603F",
"q c #675240",
"w c #695642",
"e c #6C5A46",
"r c #6D5C48",
"t c #715C45",
"y c #7A5F40",
"u c #715E48",
"i c #7D6241",
"p c #74624C",
"a c #756551",
"s c #786751",
"d c #7B6A55",
"f c #7E6E5A",
"g c #7F705B",
"h c #7F7262",
"j c #806545",
"k c #836947",
"l c #856B4B",
"z c #886E4E",
"x c #8A714F",
"c c #876E50",
"v c #886F51",
"b c #8C7455",
"n c #81715C",
"m c #907756",
"M c #907857",
"N c #947C5D",
"B c #847562",
"V c #867966",
"C c #897B67",
"Z c #8C7F6C",
"A c #977F61",
"S c #8E806C",
"D c #9A8365",
"F c #938574",
"G c None",
/* pixels */
"GGGGGGGGGGGGGGGGGGGGGGGGGGGGGGGGGGGGGGGGGGGGGGGGGGGGGGGGGGGGGGGG",
"GGGGGGGGGGGGGGGGGGGGGGGGGGGGGGGGGGGGGGGGGGGGGGGGGGGGGGGGGGGGGGGG",
"GGGGGGGGGGGGGGGGGGGGGGGGGGGGGGGGGGGGGGGGGGGGGGGGGGGGGGGGGGGGGGGG",
"GGGGGGGGGGGGGGGGGGGGGGGGGGGGGGGGGGGGGGGGGGGGGGGGGGGGGGGGGGGGGGGG",
"GGGGGGGGGGGGGGGGGGGGGGGGGGGGGGGGGGGGGGGGGGGGGGGGGGGGGGGGGGGGGGGG",
"GGGGGGGGGGGGGGGGGGGGGGGGGGGGGGGGGGGGGGGGGGGGGGGGGGGGGGGGGGGGGGGG",
"GGGGGGGGGGGGGGGGGGGGGGGGGGGGGGGGGGGGGGGGGGGGGGGGGGGGGGGGGGGGGGGG",
"GGGGGGGGGGGGGGGGGGGGGGGGGGGGGGGGGGGGGGGGGGGGGGGGGGGGGGGGGGGGGGGG",
"GGGGGGGGGGGGGGGGGGGGGGGGGGGGGGGGGGGGGGGGGGGGGGGGGGGGGGGGGGGGGGGG",
"GGGGGGGGGGGGGGGGGGGGGGGGGGGGGGGGGGGGGGGGGGGGGGGGGGGGGGGGGGGGGGGG",
"GGGGGGGGGGGGGGGGGGGGGGGGGGGGGGGGGGGGGGGGGGGGGGGGGGGGGGGGGGGGGGGG",
"GGGGGGGGGGGGGGGGGGGGGGGGGGGGGGGGGGGGGGGGGGGGGGGGGGGGGGGGGGGGGGGG",
"GGGGGGGGGGGGGGGGGGGGGGGGGGGGGGGGGGGGGGGGGGGGGGGGGGGGGGGGGGGGGGGG",
"GGGGGGGGGGGGGGGGGGGGGGGGGGGGGGGGGGGGGGGGGGGGGGGGGGGGGGGGGGGGGGGG",
"GGGGGGGGGGGGGGGGGGGGGGGGGGG>1111*11111GGGGGGGGGGGGGGGGGGGGGGGGGG",
"GGGGGGGGGGGGGGGGGGGGGGG;1>*xxxkzOzzlll@;==GGGGGGGGGGGGGGGGGGGGGG",
"GGGGGGGGGGGGGGGGGGGGG1;mMM$zxxzkOzkklzO99y*=GGGGGGGGGGGGGGGGGGGG",
"GGGGGGGGGGGGGGGGGGG**bbmmM$DDDNN$NDDNmO99y88@&GGGGGGGGGGGGGGGGGG",
"GGGGGGGGGGGGGGGGGG;k$zDDDD$6696k$60690@mbbb6=2&GGGGGGGGGGGGGGGGG",
"GGGGGGGGGGGGGGGGG>zz$A6zjj*9i66j$00iii*;=j9b$52&GGGGGGGGGGGGGGGG",
"GGGGGGGGGGGGGGGG;lzA*66zjj$jjy8i=06jji;;lyyy=c25@GGGGGGGGGGGGGGG",
"GGGGGGGGGGGGGGGG;lN6*6zjjj;9yjyj=0jii0;kyyyi=yc2@GGGGGGGGGGGGGGG",
"GGGGGGGGGGGGGGG=9b99*6zjjj;9yjyj;00jj9:iiyiy:i0l5@GGGGGGGGGGGGGG",
"GGGGGGGGGGGGGGG;b669=kjijj;jy9yj;ii0ii:iyiyy>i00l@GGGGGGGGGGGGGG",
"GGGGGGGGGGGGGG-yb888;jjjji,yiyij;0jij0;jyiyy,i00c,@GGGGGGGGGGGGG",
"GGGGGGGGGGGGGG=c8689;yijjj>yyyyj;iii0j;0yiiy29099b+GGGGGGGGGGGGG",
"GGGGGGGGGGGGGG=z6888,jijjj>yyyyj;kii0j10iiyy20909b+GGGGGGGGGGGGG",
"GGGGGGGGGGGGGG%68888>jij*j>yyyyi;kiijj;0*iiy,90999XGGGGGGGGGGGGG",
"GGGGGGGGGGGGGG@@%$******F*1yyyyj>kii0j;;F*****$@@@.GGGGGGGGGGGGG",
"GGGGGGGGGGGGGGOddnvnBBBBvZ*yyyyj>kii00*DdnBvddnnddXGGGGGGGGGGGGG",
"GGGGGGGGGGGGGG+ttpppsddcnnC*y9yi;kii0=DddsspuppuetXGGGGGGGGGGGGG",
"GGGGGGGGGGGGGG+ttpppsdddddO99y9j;kij00OddssupuutteXGGGGGGGGGGGGG",
"GGGGGGGGGGGGGG+XoXXoXOXXdX,909ii;kj00j>OdXoXXXXXXXXGGGGGGGGGGGGG",
"GGGGGGGGGGGGGGo===;:#,>:X,2y9tyi>kj0j0>>X:>>>>::::XGGGGGGGGGGGGG",
"GGGGGGGGGGGGGGo86685%iyy>5,y999i;k0000>0:099567857XGGGGGGGGGGGGG",
"GGGGGGGGGGGGGGo65866=yyyy,,9y90i;z0j00>0990p,77778XGGGGGGGGGGGGG",
"GGGGGGGGGGGGGGo57586>iyy9>598080;lj000,0990i278575XGGGGGGGGGGGGG",
"GGGGGGGGGGGGGGX68585:i999:,8080p;x0ij0209908,75528XGGGGGGGGGGGGG",
"GGGGGGGGGGGGGGo75858:i8999,9800i;lii00209999255555.GGGGGGGGGGGGG",
"GGGGGGGGGGGGGGX55755:y9868,6088i-l000020989y,55555+GGGGGGGGGGGGG",
"GGGGGGGGGGGGGGX57777:y8805>505+####000,09999,25582XGGGGGGGGGGGGG",
"GGGGGGGGGGGGGGX85558,y8850,08#SSSSS@90209998,42222XGGGGGGGGGGGGG",
"GGGGGGGGGGGGGGX56555,y8785,88#ppppp@092i8079:22222.GGGGGGGGGGGGG",
"GGGGGGGGGGGGGG.55775,y5755,58@ppXpp@89208687:22222XGGGGGGGGGGGGG",
"GGGGGGGGGGGGGG.55565,y2558,00ouuXpeX68,08898=22224.GGGGGGGGGGGGG",
"GGGGGGGGGGGGGGX55555,y5555,55.44424X78,09868:22222XGGGGGGGGGGGGG",
"GGGGGGGGGGGGGG.55555,i55&5255:X..X.:88>0#888=2,,,2.GGGGGGGGGGGGG",
"GGGGGGGGGGGGGG.@+@@%%%%&S$:885::+::677,&S&#&&%%+++.GGGGGGGGGGGGG",
"GGGGGGGGGGGGGG.ssgddSgnSsS@57777*98588&SpnnddddfssXGGGGGGGGGGGGG",
"GGGGGGGGGGGGGGXw4uuupppsssS#5784=5858&Saaapuururw4.GGGGGGGGGGGGG",
"GGGGGGGGGGGGGG 44uuupaasaa 55777=75852.apppretrrw4.GGGGGGGGGGGGG",
"GGGGGGGGGGGGGG X......X.a.=55777=78582=.rX...X.XX..GGGGGGGGGGGGG",
"GGGGGGGGGGGGGG.*$===@:::X:=55555=55554=>.---&:=&** GGGGGGGGGGGGG",
"GGGGGGGGGGGGGG 22222@552:5=55555%45525=7:996&,,,,> GGGGGGGGGGGGG",
"GGGGGGGGGGGGGG 22,22&45555&55255+22222&88888&,,>,, GGGGGGGGGGGGG",
"GGGGGGGGGGGGGG 22222&24455&52552o52222*88888&,<,,, GGGGGGGGGGGGG",
"GGGGGGGGGGGGGG.oo%%%%%%%o%%oooo ooo++++%%%o%oooo   GGGGGGGGGGGGG",
"GGGGGGGGGGGGGG.paaaaaaaaffaaaahh ghgfdddaaaaaaaaaa GGGGGGGGGGGGG",
"GGGGGGGGGGGGGG.BVVVVVVVhhZZZZZFF FFSSSShVVVVVBBBVB GGGGGGGGGGGGG",
"GGGGGGGGGGGGGG 33333w3wrrrrrrrra arrrrrrrwwwwqq<<< GGGGGGGGGGGGG",
"GGGGGGGGGGGGGG.3333333wwrwrwrrra arrrrrreewww3<<<< GGGGGGGGGGGGG",
"GGGGGGGGGGGGGG.<333wwwwwwrrrrrra arrrrrrewwww433<< GGGGGGGGGGGGG",
"GGGGGGGGGGGGGG.<33wwwwwrwrwrrrra.arrrrrrewwww33w<< GGGGGGGGGGGGG",
"GGGGGGGGGGGGGG              .. .          .        GGGGGGGGGGGGG"
};
