/* XPM */
static char *result[] = {
/* columns rows colors chars-per-pixel */
"64 64 256 2 ",
"   c #40536C",
".  c #42556D",
"X  c #44576F",
"o  c #47586E",
"O  c #48586E",
"+  c #48596E",
"@  c #48596F",
"#  c #475A71",
"$  c #495A70",
"%  c #495A71",
"&  c #495B71",
"*  c #4A5B72",
"=  c #4B5C74",
"-  c #4A5D74",
";  c #4B5E75",
":  c #4C5E75",
">  c #4D5E76",
",  c #4D5F77",
"<  c #4D6179",
"1  c #4D6279",
"2  c #4F667D",
"3  c #52637D",
"4  c #51647D",
"5  c #52657F",
"6  c #52667F",
"7  c #726D70",
"8  c #77747D",
"9  c #947E6B",
"0  c #B58C4C",
"q  c #B58C4D",
"w  c #BFAA55",
"e  c #9E8261",
"r  c #9F8568",
"t  c #8C8377",
"y  c #8F8B78",
"u  c #C09240",
"i  c #D1B557",
"p  c #D5B879",
"a  c #DCDA4F",
"s  c #ECF54D",
"d  c #E7E37D",
"f  c #556681",
"g  c #546782",
"h  c #556782",
"j  c #566782",
"k  c #516982",
"l  c #526982",
"z  c #536982",
"x  c #516A82",
"c  c #566883",
"v  c #526B84",
"b  c #536B84",
"n  c #556984",
"m  c #566984",
"M  c #566A84",
"N  c #566A85",
"B  c #576B86",
"V  c #536D86",
"C  c #546D86",
"Z  c #546E87",
"A  c #536E88",
"S  c #576E8C",
"D  c #586D88",
"F  c #596E89",
"G  c #596E8A",
"H  c #596F8A",
"J  c #586F8B",
"K  c #596F8B",
"L  c #5A6E8A",
"P  c #5A6F8B",
"I  c #596F8C",
"U  c #56708A",
"Y  c #57708A",
"T  c #56708B",
"R  c #56718B",
"E  c #59708B",
"W  c #59708C",
"Q  c #59718D",
"!  c #5A708C",
"~  c #5B718D",
"^  c #5A728E",
"/  c #5B728E",
"(  c #5A738E",
")  c #5B728F",
"_  c #5C728F",
"`  c #58748E",
"'  c #5A748F",
"]  c #5C7390",
"[  c #5B7490",
"{  c #5A7793",
"}  c #5C7490",
"|  c #5C7591",
" . c #5C7592",
".. c #5D7692",
"X. c #5D7693",
"o. c #5D7793",
"O. c #5D7794",
"+. c #5C7893",
"@. c #5A7994",
"#. c #5D7894",
"$. c #5D7995",
"%. c #5E7895",
"&. c #5D7A96",
"*. c #5E7A97",
"=. c #5E7B97",
"-. c #5F7B98",
";. c #5F7B99",
":. c #5D7C98",
">. c #5E7D99",
",. c #5D7D9B",
"<. c #5F7D9A",
"1. c #5F7E9A",
"2. c #616D82",
"3. c #647188",
"4. c #787680",
"5. c #787780",
"6. c #607C99",
"7. c #607E9B",
"8. c #617E9B",
"9. c #607E9C",
"0. c #617E9C",
"q. c #607F9C",
"w. c #617F9C",
"e. c #5F819D",
"r. c #5F829E",
"t. c #5F829F",
"y. c #61809D",
"u. c #60819D",
"i. c #61819E",
"p. c #60839F",
"a. c #62829F",
"s. c #688A9F",
"d. c #6083A0",
"f. c #6283A0",
"g. c #6482A1",
"h. c #6084A0",
"j. c #6084A1",
"k. c #6184A1",
"l. c #6284A1",
"z. c #6085A3",
"x. c #6285A2",
"c. c #6386A3",
"v. c #6386A4",
"b. c #6387A5",
"n. c #6585A4",
"m. c #6586A4",
"M. c #6487A4",
"N. c #6487A5",
"B. c #6288A6",
"V. c #6488A5",
"C. c #6488A6",
"Z. c #6489A6",
"A. c #6489A7",
"S. c #6589A7",
"D. c #658AA7",
"F. c #698CA2",
"G. c #6289A8",
"H. c #638BAA",
"J. c #658AA8",
"K. c #648AA9",
"L. c #658BA9",
"P. c #658BAA",
"I. c #658CAB",
"U. c #668CAA",
"Y. c #668DAB",
"T. c #668DAC",
"R. c #668EAC",
"E. c #678EAD",
"W. c #678FAE",
"Q. c #6888A9",
"!. c #688BAA",
"~. c #6A8CAD",
"^. c #6A8CAE",
"/. c #688FAE",
"(. c #6A8EAE",
"). c #6790AE",
"_. c #6890AF",
"`. c #6891AF",
"'. c #6C96AD",
"]. c #729AA4",
"[. c #739AA5",
"{. c #739BA6",
"}. c #6A90B0",
"|. c #6993B3",
" X c #6D92B4",
".X c #6B94B4",
"XX c #6B95B4",
"oX c #6B95B6",
"OX c #6C96B6",
"+X c #6D96B7",
"@X c #6F99BA",
"#X c #719CBF",
"$X c #729CBF",
"%X c #75A0AC",
"&X c #76A3B0",
"*X c #729FC2",
"=X c #73A0C3",
"-X c #74A1C4",
";X c #75A1C4",
":X c #74A2C5",
">X c #76A2C6",
",X c #76A3C6",
"<X c #76A3C7",
"1X c #77A4C8",
"2X c #78A5CA",
"3X c #78A6CA",
"4X c #79A6CC",
"5X c #7CACD2",
"6X c #7DADD3",
"7X c #7FB0D6",
"8X c #9CA4A7",
"9X c #9DA9AD",
"0X c #8BBEB2",
"qX c #8BBFB5",
"wX c #A0B1B8",
"eX c #A1B5BE",
"rX c #C4AB83",
"tX c #D6B986",
"yX c #D7BA87",
"uX c #8CC2B8",
"iX c #F1F88E",
"pX c #E0CBA2",
"aX c #EDE7B4",
"sX c #82B4DC",
"dX c #83B6DF",
"fX c #83B7DF",
"gX c #85BAE3",
"hX c #86BAE4",
"jX c #87BBE5",
"kX c #87BCE6",
"lX c #88BDE7",
"zX c #88BFE9",
"xX c #89C0EB",
"cX c #8AC0EB",
"vX c #8AC1EC",
"bX c #8EC6F2",
"nX c #8EC6F3",
"mX c #8EC7F3",
"MX c #8FC8F5",
"NX c #8FC9F5",
"BX c #92CDFA",
"VX c #93CEFC",
"CX c #93CFFD",
"ZX c #94CFFD",
"AX c #EAE2C6",
"SX c #F1E9CB",
"DX c #F1EACC",
"FX c #F2EBCE",
"GX c #F2EBCF",
"HX c #F9FCCC",
"JX c #E2E5D4",
"KX c #E3E5D4",
"LX c #E3E7D8",
"PX c #E3E8D9",
"IX c #FEFFE7",
"UX c None",
/* pixels */
"UXUXUXUXUXUXUXUXUXUXUXUXUXUXUXUXUXUXUXUXUXUXUXUXUXUXUXUXUXUXUXUXUXUXUXUXUXUXUXUXUXUXUXUXUXUXUXUXUXUXUXUXUXUXUXUXUXUXUXUXUXUXUXUX",
"UXUXUXUXUXUXUXUXUXUXUXUXUXUXUXUXUXUXUXUXUXUXUXUXUXUXUXUXUXUXUXUXUXUXUXUXUXUXUXUXUXUXUXUXUXUXUXUXUXUXUXUXUXUXUXUXUXUXUXUXUXUXUXUX",
"UXUXUXUXUXUXUXUXUXUXUXUXUXUXUXUXUXUXUXUXUXUXUXUXUXUXUXUXUXUXUXUXUXUXUXUXUXUXUXUXUXUXUXUXUXUXUXUXUXUXUXUXUXUXUXUXUXUXUXUXUXUXUXUX",
"UXUXUXUXUXUXUXUXUXUXUXUXUXUXUXUXUXUXUXUXUXUXUXUXUXUXUXUXUXUXUXUXUXUXUXUXUXUXUXUXUXUXUXUXUXUXUXUXUXUXUXUXUXUXUXUXUXUXUXUXUXUXUXUX",
"UXUXUXUXUXUXUXUXUXUXUXUXUXUXUXUXUXUXUXUXUXUXUXUXUXUXUXUXUXUXUXUXUXUXUXUXUXUXUXUXUXUXUXUXUXUXUXUXUXUXUXUXUXUXUXUXUXUXUXUXUXUXUXUX",
"UXUXUXUXUXUXUXUXUXUXUXUXUXUXUXUXUXUXUXUXUXUXUXUXUXUXUXUXUXUXUXUXUXUXUXUXUXUXUXUXUXUXUXUXUXUXUXUXUXUXUXUXUXUXUXUXUXUXUXUXUXUXUXUX",
"UXUXUXUXUXUXUXUXUXUXUXUXUXUXUXUXUXUXUXUXUXUXUXUXUXUXUXUXUXUXUXUXUXUXUXUXUXUXUXUXUXUXUXUXUXUXUXUXUXUXUXUXUXUXUXUXUXUXUXUXUXUXUXUX",
"UXUXUXUXUXUXUXUXUXUXUXUXUXUXUXUXUXUXUXUXUXUXUXUXUXUXUXUXUXUXUXUXUXUXUXUXUXUXUXUXUXUXUXUXUXUXUXUXUXUXUXUXUXUXUXUXUXUXUXUXUXUXUXUX",
"UXUXUXUXUXUXUXUXUXUXUXUXUXUXUXUXUXUXUXUXUXUXUXUXUXUXUXUXUXUXUXUXUXUXUXUXUXUXUXUXUXUXUXUXUXUXUXUXUXUXUXUXUXUXUXUXUXUXUXUXUXUXUXUX",
"UXUXUXUXUXUXUXUXUXUXUXUXUXUXUXUXUXUXUXUXUXUXUXUXUXUXUXUXUXUXUXUXUXUXUXUXUXUXUXUXUXUXUXUXUXUXUXUXUXUXUXUXUXUXUXUXUXUXUXUXUXUXUXUX",
"UXUXUXUXUXUXUXUXUXUXUXUXUXUXUXUXUXUXUXUXUXUXUXUXUXUXUXUXUXUXUXUXUXUXUXUXUXUXUXUXUXUXUXUXUXUXUXUXUXUXUXUXUXUXUXUXUXUXUXUXUXUXUXUX",
"UXUXUXUXUXUXUXUXUXUXUXUXUXUXUXUXUXUXUXUXUXUXUXUXUXUXUXUXUXUXUXUXUXUXUXUXUXUXUXUXUXUXUXUXUXUXUXUXUXUXUXUXUXUXUXUXUXUXUXUXUXUXUXUX",
"UXUXUXUXUXUXUXUXUXUXUXUXUXUXUXUXUXUXUXUXUXUXUXUXUXUXUXUXUXUXUXUXUXUXUXUXUXUXUXUXUXUXUXUXUXUXUXUXUXUXUXUXUXUXUXUXUXUXUXUXUXUXUXUX",
"UXUXUXUXUXUXUXUXUXUXUXUXUXUXUXUXUXUXUXUXUXUXUXUXUXUXUXUXUXUXUXUXUXUXUXUXUXUXUXUXUXUXUXUXUXUXUXUXUXUXUXUXUXUXUXUXUXUXUXUXUXUXUXUX",
"UXUXUXUXUXUXUXUXUXUXUXUXUXUXUXUXUXUXUXUXUXUXUXUXUXUXUXUXUXUXUXUXUXUXUXUXUXUXUXUXUXUXUXUXUXUXUXUXUXUXUXUXUXUXUXUXUXUXUXUXUXUXUXUX",
"UXUXUXUXUXUXUXUXUXUXUXUXUXUXUXUXUXUXUXUXUXUXUXUXUXUXUXUXUXUXUXUXUXUXUXUXUXUXUXUXUXUXUXUXUXUXUXUXUXUXUXUXUXUXUXUXUXUXUXUXUXUXUXUX",
"UXUXUXUXUXUXUXUXUXUXUXUXUXUXUXUXUXUXUXUXUXUXUXUXUXUXUXUXUXUXUXUXUXUXUXUXUXUXUXUXUXUXUXUXUXUXUXUXUXUXUXUXUXUXUXUXUXUXUXUXUXUXUXUX",
"UXUXUXUXUXUXUXUXUXUXUXUXUXUXUXUXUXUXUXUXUXUXUXUXUXUXUXUXUXUXUXUXUXUXUXUXUXUXUXUXUXUXUXUXUXUXUXUXUXUXUXUXUXUXUXUXUXUXUXUXUXUXUXUX",
"UXUXUXUXUXUXUXUXUXUXUXUXUXUXUXUXUXUXUXUXUXUXUXUXUXUXUXUXUXUXUXUXUXUXUXUXUXUXUXUXUXUXUXUXUXUXUXUXUXUXUXUXUXUXUXUXUXUXUXUXUXUXUXUX",
"UXUXUXUXUXUXUXUXUXUXUXUXUXUXUXUXUXUXUXUXUXUXUXUXUXUXUXUXUXUXUXUXUXUXUXUXUXUXUXUXUXUXUXUXUXUXUXUXUXUXUXUXUXUXUXUXUXUXUXUXUXUXUXUX",
"UXUXUXUXUXUXUXUXUXUXUXUXUXUXUXUXUXUXUXUXUXUXUXUXUXUXUXUXUXUXUXUXUXUXUXUXUXUXUXUXUXUXUXUXUXUXUXUXUXUXUXUXUXUXUXUXUXUXUXUXUXUXUXUX",
"UXUXUXUXUXUXUXUXUXUXUXUXUXUXUXUXUXUXUXUXUXUXUXUXUXUXUXUXUXUXUXUXUXUXUXUXUXUXUXUXUXUXUXUXUXUXUXUXUXUXUXUXUXUXUXUXUXUXUXUXUXUXUXUX",
"UXUXUXUXUXUXUXUXUXUXUXUXUXUXUXUXUXUXUXUXVXVXVXVXVXVXVXVXVXbXdX6X6X6XUXUXUXUXUXUXUXUXUXUXUXUXUXUXUXUXUXUXUXUXUXUXUXUXUXUXUXUXUXUX",
"UXUXUXUXUXUXUXUXUXUXUXUXUXUXUXUXUXUXUXUXCXCXCXZXCXBXNXmXbXcXsX6X6X6XUXUXUXUXUXUXUXUXUXUXUXUXUXUXUXUXUXUXUXUXUXUXUXUXUXUXUXUXUXUX",
"UXUXUXUXUXUXUXUXUXUXUXUXUXUXUXUXUXUXVXVXVXVXVXVXVXMXlXfXdXsX7X6X6X6X6X6XUXUXUXUXUXUXUXUXUXUXUXUXUXUXUXUXUXUXUXUXUXUXUXUXUXUXUXUX",
"UXUXUXUXUXUXUXUXUXUXUXUXUXUXUXUXUXUXvXxXxXzXkXjXhXsX4X;X1X3X3X3X2X2X2X<XUXUXUXUXUXUXUXUXUXUXUXUXUXUXUXUXUXUXUXUXUXUXUXUXUXUXUXUX",
"UXUXUXUXUXUXUXUXUXUXUXUXUXUXUXUXVXvX5X:X-X#X X^.~.Q.g.n.}.OX+X+X+X+X+XXX_.Y.UXUXUXUXUXUXUXUXUXUXUXUXUXUXUXUXUXUXUXUXUXUXUXUXUXUX",
"UXUXUXUXUXUXUXUXUXUXUXUXUXUXUXUXnXgX*XL.c.1.W c c c c J :.p.x.V.L.Y.Y.Y.Y.Y.UXUXUXUXUXUXUXUXUXUXUXUXUXUXUXUXUXUXUXUXUXUXUXUXUXUX",
"UXUXUXUXUXUXUXUXUXUXUXUXUXUXUXUXfX6X@Xc.$.H m f f f h g l C ' <.V.Y.Y.Y.Y.Y.Y.Y.UXUXUXUXUXUXUXUXUXUXUXUXUXUXUXUXUXUXUXUXUXUXUXUX",
"UXUXUXUXUXUXUXUXUXUXUXUXUXUXUXUX2X=X.Xx.( c j c c c c 3 = , M #.v.Y.Y.Y.Y.Y.Y.Y.UXUXUXUXUXUXUXUXUXUXUXUXUXUXUXUXUXUXUXUXUXUXUXUX",
"UXUXUXUXUXUXUXUXUXUXUXUXUXUXUXUXOX.X/.l.( c UXUXUXUXUXUX$ > n O.v.Y.Y.Y.Y.Y.Y.Y.Y.Y.UXUXUXUXUXUXUXUXUXUXUXUXUXUXUXUXUXUXUXUXUXUX",
"UXUXUXUXUXUXUXUXUXUXUXUXUXUXUXUXH.G.z.,.Q c UXUXUXUXUXUX@ , M  .i.V.L.Y.Y.Y.Y.Y.Y.Y.UXUXUXUXUXUXUXUXUXUXUXUXUXUXUXUXUXUXUXUXUXUX",
"UXUXUXUXUXUXUXUXUXUXUXUXUXUXUXUXY.v.=.^ UXUXUXUXUXUX@ + @ , M ~ ..7.C.Y.Y.Y.Y.Y.Y.Y.Y.Y.UXUXUXUXUXUXUXUXUXUXUXUXUXUXUXUXUXUXUXUX",
"UXUXUXUXUXUXUXUXUXUXUXUXUXUXUXUXeXwX9X8XUXUXUXUXUXUXO o O , M P P #.c.Y.Y.Y.Y.Y.Y.Y.Y.Y.UXUXUXUXUXUXUXUXUXUXUXUXUXUXUXUXUXUXUXUX",
"UXUXUXUXUXUXUXUXUXUXUXUXUXUXUXUXPXLXJXKXUXUX  @ @ @ @ @ @ , M P P O.c.Y.Y.Y.Y.Y.Y.Y.Y.Y.UXUXUXUXUXUXUXUXUXUXUXUXUXUXUXUXUXUXUXUX",
"UXUXUXUXUXUXUXUXUXUXUXUXUXUXUXUXGXDXSXAXUXUX. @ @ - 2 x x b D L P #.c.Y.Y.Y.Y.Y.Y.Y.Y.Y.UXUXUXUXUXUXUXUXUXUXUXUXUXUXUXUXUXUXUXUX",
"UXUXUXUXUXUXUXUXUXUXUXUXUXUXIXFXpXyXtXrXt @ X O @ 2 @.r.t.>.[ P P #.c.Y.Y.Y.Y.Y.Y.Y.Y.Y.Y.Y.UXUXUXUXUXUXUXUXUXUXUXUXUXUXUXUXUXUX",
"UXUXUXUXUXUXUXUXUXUXUXUXUXUXHXaXp u q e 7 : # * 1 R k.Y.Y.C.7.| ~ O.c.Y.Y.Y.Y.Y.Y.Y.Y.Y.Y.Y.UXUXUXUXUXUXUXUXUXUXUXUXUXUXUXUXUXUX",
"UXUXUXUXUXUXUXUXUXUXUXUXUXUXiXd i 0 9 8 2.5 ; < Y >.C.T.R.U.C.y. .#.c.Y.Y.Y.Y.Y.Y.Y.Y.Y.Y.Y.Y.Y.UXUXUXUXUXUXUXUXUXUXUXUXUXUXUXUX",
"UXUXUXUXUXUXUXUXUXUXUXUXUXUXs a w r 4.P K B 4 z +.a.N.J.U.Y.Y.V.7.7.V.Y.Y.Y.Y.Y.Y.Y.Y.Y.Y.Y.Y.Y.UXUXUXUXUXUXUXUXUXUXUXUXUXUXUXUX",
"UXUXUXUXUXUXUXUXUXUXUXUXUXUXUXUXy 5.3.I K F B E *.y.a.c.J.Y.Y.L.C.V.L.Y.Y.Y.Y.Y.Y.Y.Y.Y.Y.Y.Y.Y.UXUXUXUXUXUXUXUXUXUXUXUXUXUXUXUX",
"UXUXUXUXUXUXUXUXUXUXUXUXUXUXUXUXP P P P P P P ] -.w.w.f.D.Y.Y.Y.Y.Y.Y.Y.Y.Y.Y.Y.Y.Y.Y.Y.Y.Y.Y.Y.UXUXUXUXUXUXUXUXUXUXUXUXUXUXUXUX",
"UXUXUXUXUXUXUXUXUXUXUXUXUXUXUXUXS K K P P P P } -.w.w.f.S.Y.Y.Y.Y.Y.Y.Y.Y.Y.Y.Y.Y.Y.Y.Y.Y.Y.Y.Y.Y.Y.UXUXUXUXUXUXUXUXUXUXUXUXUXUX",
"UXUXUXUXUXUXUXUXUXUXUXUXUXUXUXUXM B F P P P P ] -.w.w.f.D.Y.Y.Y.Y.Y.Y.Y.Y.Y.Y.Y.Y.Y.Y.Y.Y.Y.Y.Y.Y.Y.UXUXUXUXUXUXUXUXUXUXUXUXUXUX",
"UXUXUXUXUXUXUXUXUXUXUXUXUXUXUXUX, 4 B P P P P ] -.w.w.f.D.Y.Y.Y.Y.Y.Y.Y.Y.Y.Y.Y.Y.Y.Y.Y.Y.Y.Y.Y.Y.Y.UXUXUXUXUXUXUXUXUXUXUXUXUXUX",
"UXUXUXUXUXUXUXUXUXUXUXUXUXUXUXUX@ : 6 B G P P ] -.w.w.a.M.J.P.I.Y.Y.Y.Y.Y.Y.Y.Y.Y.Y.Y.Y.Y.Y.I.P.J.Z.UXUXUXUXUXUXUXUXUXUXUXUXUXUX",
"UXUXUXUXUXUXUXUXUXUXUXUXUXUXUXUX@ % : 4 B P P ] -.w.w.y.a.c.J.Y.Y.Y.Y.Y.Y.Y.Y.Y.Y.Y.Y.Y.Y.Y.Y.J.c.a.y.w.UXUXUXUXUXUXUXUXUXUXUXUX",
"UXUXUXUXUXUXUXUXUXUXUXUXUXUXUXUX@ @ @ : 6 B G ) %.6.8.w.w.F.%X&X'.Y.Y.E.).`.`.).E.Y.Y.Y.Y.'.&X%XF.w.0.w.UXUXUXUXUXUXUXUXUXUXUXUX",
"UXUXUXUXUXUXUXUXUXUXUXUXUXUXUXUX@ @ @ % : 4 B ! _ o.6.9.w.[.qXuX&XY.I.W.|.oXoX|.W.Y.Y.I.Y.&XuXqX[.w.9.w.UXUXUXUXUXUXUXUXUXUXUXUX",
"UXUXUXUXUXUXUXUXUXUXUXUXUXUXUXUX@ @ @ @ @ : 6 B G / %.;.8.].0XqX%Xb.d.j.B.K.K.B.h.e.e.d.b.%XqX0X].w.9.w.UXUXUXUXUXUXUXUXUXUXUXUX",
"UXUXUXUXUXUXUXUXUXUXUXUXUXUXUXUX@ @ @ @ @ % : 4 B ! ) X.6.s.[.{.F.>.T v V A A V v k x T >.F.{.].s.w.w.w.UXUXUXUXUXUXUXUXUXUXUXUX",
"UXUXUXUXUXUXUXUXUXUXUXUXUXUXUXUX@ @ @ @ @ @ @ , N P P ] -.w.w.w.w.&.U Z ` { { { { ` Z U &.w.w.w.w.w.w.w.UXUXUXUXUXUXUXUXUXUXUXUX",
"UXUXUXUXUXUXUXUXUXUXUXUXUXUXUXUXUXUX@ @ @ @ @ , M P P ] -.w.9.9.0.q.u.A.+X$X$X$X$X+XA.u.q.0.9.9.w.w.w.w.UXUXUXUXUXUXUXUXUXUXUXUX",
"UXUXUXUXUXUXUXUXUXUXUXUXUXUXUXUXUXUX@ @ @ @ @ : 6 B F / %.6.8.w.w.a.M.}.$X>X,X,X>X$X}.M.a.w.w.w.w.w.w.w.UXUXUXUXUXUXUXUXUXUXUXUX",
"UXUXUXUXUXUXUXUXUXUXUXUXUXUXUXUXUXUXUXUXUXUX@ & : 4 B ! _ o.6.w.w.y.a.m.!.(.(.(.(.!.m.a.y.w.w.w.w.w.UXUXUXUXUXUXUXUXUXUXUXUXUXUX",
"UXUXUXUXUXUXUXUXUXUXUXUXUXUXUXUXUXUXUXUXUXUX@ @ @ , M P P ] -.w.w.w.w.w.w.w.w.w.w.w.w.w.w.w.w.w.w.w.UXUXUXUXUXUXUXUXUXUXUXUXUXUX",
"UXUXUXUXUXUXUXUXUXUXUXUXUXUXUXUXUXUXUXUXUXUXUXUXUXUXUXUXUXUXUXUXUXUXUXUXUXUXUXUXUXUXUXUXUXUXUXUXUXUXUXUXUXUXUXUXUXUXUXUXUXUXUXUX",
"UXUXUXUXUXUXUXUXUXUXUXUXUXUXUXUXUXUXUXUXUXUXUXUXUXUXUXUXUXUXUXUXUXUXUXUXUXUXUXUXUXUXUXUXUXUXUXUXUXUXUXUXUXUXUXUXUXUXUXUXUXUXUXUX",
"UXUXUXUXUXUXUXUXUXUXUXUXUXUXUXUXUXUXUXUXUXUXUXUXUXUXUXUXUXUXUXUXUXUXUXUXUXUXUXUXUXUXUXUXUXUXUXUXUXUXUXUXUXUXUXUXUXUXUXUXUXUXUXUX",
"UXUXUXUXUXUXUXUXUXUXUXUXUXUXUXUXUXUXUXUXUXUXUXUXUXUXUXUXUXUXUXUXUXUXUXUXUXUXUXUXUXUXUXUXUXUXUXUXUXUXUXUXUXUXUXUXUXUXUXUXUXUXUXUX",
"UXUXUXUXUXUXUXUXUXUXUXUXUXUXUXUXUXUXUXUXUXUXUXUXUXUXUXUXUXUXUXUXUXUXUXUXUXUXUXUXUXUXUXUXUXUXUXUXUXUXUXUXUXUXUXUXUXUXUXUXUXUXUXUX",
"UXUXUXUXUXUXUXUXUXUXUXUXUXUXUXUXUXUXUXUXUXUXUXUXUXUXUXUXUXUXUXUXUXUXUXUXUXUXUXUXUXUXUXUXUXUXUXUXUXUXUXUXUXUXUXUXUXUXUXUXUXUXUXUX",
"UXUXUXUXUXUXUXUXUXUXUXUXUXUXUXUXUXUXUXUXUXUXUXUXUXUXUXUXUXUXUXUXUXUXUXUXUXUXUXUXUXUXUXUXUXUXUXUXUXUXUXUXUXUXUXUXUXUXUXUXUXUXUXUX",
"UXUXUXUXUXUXUXUXUXUXUXUXUXUXUXUXUXUXUXUXUXUXUXUXUXUXUXUXUXUXUXUXUXUXUXUXUXUXUXUXUXUXUXUXUXUXUXUXUXUXUXUXUXUXUXUXUXUXUXUXUXUXUXUX"
};
